<svg xmlns="http://www.w3.org/2000/svg" xmlns:xlink="http://www.w3.org/1999/xlink" version="1.1" class="marks" width="419.02535580737043" height="342" viewBox="0 0 419.02535580737043 342"><rect width="419.02535580737043" height="342" fill="white"/><g fill="none" stroke-miterlimit="10" transform="translate(53,22)"><g class="mark-group role-frame root" role="graphics-object" aria-roledescription="group mark container"><g transform="translate(0,0)"><path class="background" aria-hidden="true" d="M0.5,0.5h184.02535580737043v300h-184.02535580737043Z" stroke="#ddd"/><g><g class="mark-group role-axis" role="graphics-symbol" aria-roledescription="axis" aria-label="X-axis titled 'PC2 (23% variance)' for a linear scale with values from −2 to 4"><g transform="translate(0.5,300.5)"><path class="background" aria-hidden="true" d="M0,0h0v0h0Z" pointer-events="none"/><g><g class="mark-rule role-axis-domain" pointer-events="none"><line transform="translate(0,0)" x2="184.02535580737043" y2="0" stroke="#888" stroke-width="1" opacity="1"/></g><g class="mark-text role-axis-title" pointer-events="none"><text text-anchor="middle" transform="translate(92.01267790368522,13)" font-family="sans-serif" font-size="11px" font-weight="bold" fill="#000" opacity="1">PC2 (23% variance)</text></g></g><path class="foreground" aria-hidden="true" d="" pointer-events="none" display="none"/></g></g><g class="mark-group role-axis" role="graphics-symbol" aria-roledescription="axis" aria-label="Y-axis titled 'PC1 (38% variance)' for a linear scale with values from −3 to 4"><g transform="translate(0.5,0.5)"><path class="background" aria-hidden="true" d="M0,0h0v0h0Z" pointer-events="none"/><g><g class="mark-rule role-axis-domain" pointer-events="none"><line transform="translate(0,300)" x2="0" y2="-300" stroke="#888" stroke-width="1" opacity="1"/></g><g class="mark-text role-axis-title" pointer-events="none"><text text-anchor="middle" transform="translate(-4,150) rotate(-90) translate(0,-2)" font-family="sans-serif" font-size="11px" font-weight="bold" fill="#000" opacity="1">PC1 (38% variance)</text></g></g><path class="foreground" aria-hidden="true" d="" pointer-events="none" display="none"/></g></g><g class="mark-symbol role-mark marks" role="graphics-object" aria-roledescription="symbol mark container"><path aria-label="clade: 20A (B.1); exclude top 5 mutations/clade: yes; total_count: 15734; PC2 (23% variance): 0.614618919525; PC1 (38% variance): −1.95389699544" role="graphics-symbol" aria-roledescription="point" transform="translate(82.677117901193,252.46282032301062)" d="M4.031128874149275,0A4.031128874149275,4.031128874149275,0,1,1,-4.031128874149275,0A4.031128874149275,4.031128874149275,0,1,1,4.031128874149275,0" fill="rgb(72, 26, 108)" stroke="black" stroke-width="1.5" opacity="0.9"/><path aria-label="clade: 20B (B.1.1); exclude top 5 mutations/clade: yes; total_count: 12933; PC2 (23% variance): −0.650117162318; PC1 (38% variance): −2.80019387964" role="graphics-symbol" aria-roledescription="point" transform="translate(44.85627854048889,290)" d="M4.031128874149275,0A4.031128874149275,4.031128874149275,0,1,1,-4.031128874149275,0A4.031128874149275,4.031128874149275,0,1,1,4.031128874149275,0" fill="rgb(71, 47, 125)" stroke="black" stroke-width="1.5" opacity="0.9"/><path aria-label="clade: 20C (B.1.367); exclude top 5 mutations/clade: yes; total_count: 8566; PC2 (23% variance): 0.478313092334; PC1 (38% variance): −1.30863654617" role="graphics-symbol" aria-roledescription="point" transform="translate(78.60100995415017,223.8425360296967)" d="M4.031128874149275,0A4.031128874149275,4.031128874149275,0,1,1,-4.031128874149275,0A4.031128874149275,4.031128874149275,0,1,1,4.031128874149275,0" fill="rgb(65, 68, 135)" stroke="black" stroke-width="1.5" opacity="0.9"/><path aria-label="clade: 20E (B.1.177); exclude top 5 mutations/clade: yes; total_count: 9469; PC2 (23% variance): −1.8157177649; PC1 (38% variance): −1.5826491071" role="graphics-symbol" aria-roledescription="point" transform="translate(9.99999999999999,235.9962600066962)" d="M4.031128874149275,0A4.031128874149275,4.031128874149275,0,1,1,-4.031128874149275,0A4.031128874149275,4.031128874149275,0,1,1,4.031128874149275,0" fill="rgb(57, 86, 140)" stroke="black" stroke-width="1.5" opacity="0.9"/><path aria-label="clade: 20G (B.1.2); exclude top 5 mutations/clade: yes; total_count: 12966; PC2 (23% variance): −1.52047267673; PC1 (38% variance): −1.82205908019" role="graphics-symbol" aria-roledescription="point" transform="translate(18.82904916831179,246.61519922783035)" d="M4.031128874149275,0A4.031128874149275,4.031128874149275,0,1,1,-4.031128874149275,0A4.031128874149275,4.031128874149275,0,1,1,4.031128874149275,0" fill="rgb(49, 104, 142)" stroke="black" stroke-width="1.5" opacity="0.9"/><path aria-label="clade: 20I (Alpha); exclude top 5 mutations/clade: yes; total_count: 54803; PC2 (23% variance): −1.49181075761; PC1 (38% variance): −1.65156730558" role="graphics-symbol" aria-roledescription="point" transform="translate(19.68615908593588,239.05310075341)" d="M4.031128874149275,0A4.031128874149275,4.031128874149275,0,1,1,-4.031128874149275,0A4.031128874149275,4.031128874149275,0,1,1,4.031128874149275,0" fill="rgb(42, 120, 142)" stroke="black" stroke-width="1.5" opacity="0.9"/><path aria-label="clade: 21C (Epsilon); exclude top 5 mutations/clade: yes; total_count: 5804; PC2 (23% variance): −0.455124800995; PC1 (38% variance): −2.09403337956" role="graphics-symbol" aria-roledescription="point" transform="translate(50.68735656541839,258.67851688064974)" d="M4.031128874149275,0A4.031128874149275,4.031128874149275,0,1,1,-4.031128874149275,0A4.031128874149275,4.031128874149275,0,1,1,4.031128874149275,0" fill="rgb(35, 136, 142)" stroke="black" stroke-width="1.5" opacity="0.9"/><path aria-label="clade: 21I (Delta); exclude top 5 mutations/clade: yes; total_count: 22283; PC2 (23% variance): 3.66932141809; PC1 (38% variance): −0.362322472116" role="graphics-symbol" aria-roledescription="point" transform="translate(174.02535580737046,181.86913155225403)" d="M4.031128874149275,0A4.031128874149275,4.031128874149275,0,1,1,-4.031128874149275,0A4.031128874149275,4.031128874149275,0,1,1,4.031128874149275,0" fill="rgb(31, 152, 139)" stroke="black" stroke-width="1.5" opacity="0.9"/><path aria-label="clade: 21J (Delta); exclude top 5 mutations/clade: yes; total_count: 260612; PC2 (23% variance): 3.60531937645; PC1 (38% variance): 0.081808417907" role="graphics-symbol" aria-roledescription="point" transform="translate(172.11143007207346,162.16987313590116)" d="M4.031128874149275,0A4.031128874149275,4.031128874149275,0,1,1,-4.031128874149275,0A4.031128874149275,4.031128874149275,0,1,1,4.031128874149275,0" fill="rgb(34, 168, 132)" stroke="black" stroke-width="1.5" opacity="0.9"/><path aria-label="clade: 21K (Omicron BA.1); exclude top 5 mutations/clade: yes; total_count: 104035; PC2 (23% variance): 0.275064962369; PC1 (38% variance): 2.62286736161" role="graphics-symbol" aria-roledescription="point" transform="translate(72.52305030379576,49.46216037003545)" d="M4.031128874149275,0A4.031128874149275,4.031128874149275,0,1,1,-4.031128874149275,0A4.031128874149275,4.031128874149275,0,1,1,4.031128874149275,0" fill="rgb(53, 183, 121)" stroke="black" stroke-width="1.5" opacity="0.9"/><path aria-label="clade: 21L (Omicron BA.2); exclude top 5 mutations/clade: yes; total_count: 76516; PC2 (23% variance): 0.356176183637; PC1 (38% variance): 2.0100148602" role="graphics-symbol" aria-roledescription="point" transform="translate(74.94861126783039,76.64500233750631)" d="M4.031128874149275,0A4.031128874149275,4.031128874149275,0,1,1,-4.031128874149275,0A4.031128874149275,4.031128874149275,0,1,1,4.031128874149275,0" fill="rgb(84, 197, 104)" stroke="black" stroke-width="1.5" opacity="0.9"/><path aria-label="clade: 22A (Omicron BA.4); exclude top 5 mutations/clade: yes; total_count: 10510; PC2 (23% variance): −1.51694871958; PC1 (38% variance): 3.5125640211" role="graphics-symbol" aria-roledescription="point" transform="translate(18.93443006111634,9.999999999999964)" d="M4.031128874149275,0A4.031128874149275,4.031128874149275,0,1,1,-4.031128874149275,0A4.031128874149275,4.031128874149275,0,1,1,4.031128874149275,0" fill="rgb(122, 209, 81)" stroke="black" stroke-width="1.5" opacity="0.9"/><path aria-label="clade: 22B (Omicron BA.5); exclude top 5 mutations/clade: yes; total_count: 59458; PC2 (23% variance): −0.652659964949; PC1 (38% variance): 2.72381621928" role="graphics-symbol" aria-roledescription="point" transform="translate(44.78023822566335,44.98461179449254)" d="M4.031128874149275,0A4.031128874149275,4.031128874149275,0,1,1,-4.031128874149275,0A4.031128874149275,4.031128874149275,0,1,1,4.031128874149275,0" fill="rgb(165, 219, 54)" stroke="black" stroke-width="1.5" opacity="0.9"/><path aria-label="clade: 22C (Omicron BA.2.12.1); exclude top 5 mutations/clade: yes; total_count: 17542; PC2 (23% variance): −0.895962105317; PC1 (38% variance): 2.62428788571" role="graphics-symbol" aria-roledescription="point" transform="translate(37.50449801468502,49.39915355863972)" d="M4.031128874149275,0A4.031128874149275,4.031128874149275,0,1,1,-4.031128874149275,0A4.031128874149275,4.031128874149275,0,1,1,4.031128874149275,0" fill="rgb(210, 226, 27)" stroke="black" stroke-width="1.5" opacity="0.9"/></g><g class="mark-group role-legend" role="graphics-symbol" aria-roledescription="legend" aria-label="Symbol legend titled 'clade' for fill color with 14 values: 20A (B.1), 20B (B.1.1), 20C (B.1.367), 20E (B.1.177), 20G (B.1.2), ending with 22C (Omicron BA.2.12.1)"><g transform="translate(203,0)"><path class="background" aria-hidden="true" d="M0,0h129v237h-129Z" pointer-events="none"/><g><g class="mark-group role-legend-entry"><g transform="translate(0,16)"><path class="background" aria-hidden="true" d="M0,0h0v0h0Z" pointer-events="none"/><g><g class="mark-group role-scope clade_legend_entries" role="graphics-object" aria-roledescription="group mark container"><g transform="translate(0,0)"><path class="background" aria-hidden="true" d="M0,0h128.265625v12.5h-128.265625Z" opacity="1"/><g><g class="mark-symbol role-legend-symbol clade_legend_symbols"><path transform="translate(6,6)" d="M5,0A5,5,0,1,1,-5,0A5,5,0,1,1,5,0" fill="rgb(72, 26, 108)" stroke="black" stroke-width="1.5" opacity="0.9"/></g><g class="mark-text role-legend-label clade_legend_labels"><text text-anchor="start" transform="translate(16,9)" font-family="sans-serif" font-size="10px" fill="#000" opacity="1">20A (B.1)</text></g></g><path class="foreground" aria-hidden="true" d="" display="none"/></g><g transform="translate(0,16)"><path class="background" aria-hidden="true" d="M0,0h128.265625v12.5h-128.265625Z" opacity="1"/><g><g class="mark-symbol role-legend-symbol clade_legend_symbols"><path transform="translate(6,6)" d="M5,0A5,5,0,1,1,-5,0A5,5,0,1,1,5,0" fill="rgb(71, 47, 125)" stroke="black" stroke-width="1.5" opacity="0.9"/></g><g class="mark-text role-legend-label clade_legend_labels"><text text-anchor="start" transform="translate(16,9)" font-family="sans-serif" font-size="10px" fill="#000" opacity="1">20B (B.1.1)</text></g></g><path class="foreground" aria-hidden="true" d="" display="none"/></g><g transform="translate(0,32)"><path class="background" aria-hidden="true" d="M0,0h128.265625v12.5h-128.265625Z" opacity="1"/><g><g class="mark-symbol role-legend-symbol clade_legend_symbols"><path transform="translate(6,6)" d="M5,0A5,5,0,1,1,-5,0A5,5,0,1,1,5,0" fill="rgb(65, 68, 135)" stroke="black" stroke-width="1.5" opacity="0.9"/></g><g class="mark-text role-legend-label clade_legend_labels"><text text-anchor="start" transform="translate(16,9)" font-family="sans-serif" font-size="10px" fill="#000" opacity="1">20C (B.1.367)</text></g></g><path class="foreground" aria-hidden="true" d="" display="none"/></g><g transform="translate(0,48)"><path class="background" aria-hidden="true" d="M0,0h128.265625v12.5h-128.265625Z" opacity="1"/><g><g class="mark-symbol role-legend-symbol clade_legend_symbols"><path transform="translate(6,6)" d="M5,0A5,5,0,1,1,-5,0A5,5,0,1,1,5,0" fill="rgb(57, 86, 140)" stroke="black" stroke-width="1.5" opacity="0.9"/></g><g class="mark-text role-legend-label clade_legend_labels"><text text-anchor="start" transform="translate(16,9)" font-family="sans-serif" font-size="10px" fill="#000" opacity="1">20E (B.1.177)</text></g></g><path class="foreground" aria-hidden="true" d="" display="none"/></g><g transform="translate(0,64)"><path class="background" aria-hidden="true" d="M0,0h128.265625v12.5h-128.265625Z" opacity="1"/><g><g class="mark-symbol role-legend-symbol clade_legend_symbols"><path transform="translate(6,6)" d="M5,0A5,5,0,1,1,-5,0A5,5,0,1,1,5,0" fill="rgb(49, 104, 142)" stroke="black" stroke-width="1.5" opacity="0.9"/></g><g class="mark-text role-legend-label clade_legend_labels"><text text-anchor="start" transform="translate(16,9)" font-family="sans-serif" font-size="10px" fill="#000" opacity="1">20G (B.1.2)</text></g></g><path class="foreground" aria-hidden="true" d="" display="none"/></g><g transform="translate(0,80)"><path class="background" aria-hidden="true" d="M0,0h128.265625v12.5h-128.265625Z" opacity="1"/><g><g class="mark-symbol role-legend-symbol clade_legend_symbols"><path transform="translate(6,6)" d="M5,0A5,5,0,1,1,-5,0A5,5,0,1,1,5,0" fill="rgb(42, 120, 142)" stroke="black" stroke-width="1.5" opacity="0.9"/></g><g class="mark-text role-legend-label clade_legend_labels"><text text-anchor="start" transform="translate(16,9)" font-family="sans-serif" font-size="10px" fill="#000" opacity="1">20I (Alpha)</text></g></g><path class="foreground" aria-hidden="true" d="" display="none"/></g><g transform="translate(0,96)"><path class="background" aria-hidden="true" d="M0,0h128.265625v12.5h-128.265625Z" opacity="1"/><g><g class="mark-symbol role-legend-symbol clade_legend_symbols"><path transform="translate(6,6)" d="M5,0A5,5,0,1,1,-5,0A5,5,0,1,1,5,0" fill="rgb(35, 136, 142)" stroke="black" stroke-width="1.5" opacity="0.9"/></g><g class="mark-text role-legend-label clade_legend_labels"><text text-anchor="start" transform="translate(16,9)" font-family="sans-serif" font-size="10px" fill="#000" opacity="1">21C (Epsilon)</text></g></g><path class="foreground" aria-hidden="true" d="" display="none"/></g><g transform="translate(0,112)"><path class="background" aria-hidden="true" d="M0,0h128.265625v12.5h-128.265625Z" opacity="1"/><g><g class="mark-symbol role-legend-symbol clade_legend_symbols"><path transform="translate(6,6)" d="M5,0A5,5,0,1,1,-5,0A5,5,0,1,1,5,0" fill="rgb(31, 152, 139)" stroke="black" stroke-width="1.5" opacity="0.9"/></g><g class="mark-text role-legend-label clade_legend_labels"><text text-anchor="start" transform="translate(16,9)" font-family="sans-serif" font-size="10px" fill="#000" opacity="1">21I (Delta)</text></g></g><path class="foreground" aria-hidden="true" d="" display="none"/></g><g transform="translate(0,128)"><path class="background" aria-hidden="true" d="M0,0h128.265625v12.5h-128.265625Z" opacity="1"/><g><g class="mark-symbol role-legend-symbol clade_legend_symbols"><path transform="translate(6,6)" d="M5,0A5,5,0,1,1,-5,0A5,5,0,1,1,5,0" fill="rgb(34, 168, 132)" stroke="black" stroke-width="1.5" opacity="0.9"/></g><g class="mark-text role-legend-label clade_legend_labels"><text text-anchor="start" transform="translate(16,9)" font-family="sans-serif" font-size="10px" fill="#000" opacity="1">21J (Delta)</text></g></g><path class="foreground" aria-hidden="true" d="" display="none"/></g><g transform="translate(0,144)"><path class="background" aria-hidden="true" d="M0,0h128.265625v12.5h-128.265625Z" opacity="1"/><g><g class="mark-symbol role-legend-symbol clade_legend_symbols"><path transform="translate(6,6)" d="M5,0A5,5,0,1,1,-5,0A5,5,0,1,1,5,0" fill="rgb(53, 183, 121)" stroke="black" stroke-width="1.5" opacity="0.9"/></g><g class="mark-text role-legend-label clade_legend_labels"><text text-anchor="start" transform="translate(16,9)" font-family="sans-serif" font-size="10px" fill="#000" opacity="1">21K (Omicron BA.1)</text></g></g><path class="foreground" aria-hidden="true" d="" display="none"/></g><g transform="translate(0,160)"><path class="background" aria-hidden="true" d="M0,0h128.265625v12.5h-128.265625Z" opacity="1"/><g><g class="mark-symbol role-legend-symbol clade_legend_symbols"><path transform="translate(6,6)" d="M5,0A5,5,0,1,1,-5,0A5,5,0,1,1,5,0" fill="rgb(84, 197, 104)" stroke="black" stroke-width="1.5" opacity="0.9"/></g><g class="mark-text role-legend-label clade_legend_labels"><text text-anchor="start" transform="translate(16,9)" font-family="sans-serif" font-size="10px" fill="#000" opacity="1">21L (Omicron BA.2)</text></g></g><path class="foreground" aria-hidden="true" d="" display="none"/></g><g transform="translate(0,176)"><path class="background" aria-hidden="true" d="M0,0h128.265625v12.5h-128.265625Z" opacity="1"/><g><g class="mark-symbol role-legend-symbol clade_legend_symbols"><path transform="translate(6,6)" d="M5,0A5,5,0,1,1,-5,0A5,5,0,1,1,5,0" fill="rgb(122, 209, 81)" stroke="black" stroke-width="1.5" opacity="0.9"/></g><g class="mark-text role-legend-label clade_legend_labels"><text text-anchor="start" transform="translate(16,9)" font-family="sans-serif" font-size="10px" fill="#000" opacity="1">22A (Omicron BA.4)</text></g></g><path class="foreground" aria-hidden="true" d="" display="none"/></g><g transform="translate(0,192)"><path class="background" aria-hidden="true" d="M0,0h128.265625v12.5h-128.265625Z" opacity="1"/><g><g class="mark-symbol role-legend-symbol clade_legend_symbols"><path transform="translate(6,6)" d="M5,0A5,5,0,1,1,-5,0A5,5,0,1,1,5,0" fill="rgb(165, 219, 54)" stroke="black" stroke-width="1.5" opacity="0.9"/></g><g class="mark-text role-legend-label clade_legend_labels"><text text-anchor="start" transform="translate(16,9)" font-family="sans-serif" font-size="10px" fill="#000" opacity="1">22B (Omicron BA.5)</text></g></g><path class="foreground" aria-hidden="true" d="" display="none"/></g><g transform="translate(0,208)"><path class="background" aria-hidden="true" d="M0,0h128.265625v12.5h-128.265625Z" opacity="1"/><g><g class="mark-symbol role-legend-symbol clade_legend_symbols"><path transform="translate(6,6)" d="M5,0A5,5,0,1,1,-5,0A5,5,0,1,1,5,0" fill="rgb(210, 226, 27)" stroke="black" stroke-width="1.5" opacity="0.9"/></g><g class="mark-text role-legend-label clade_legend_labels"><text text-anchor="start" transform="translate(16,9)" font-family="sans-serif" font-size="10px" fill="#000" opacity="1">22C (Omicron BA.2.12.1)</text></g></g><path class="foreground" aria-hidden="true" d="" display="none"/></g></g></g><path class="foreground" aria-hidden="true" d="" pointer-events="none" display="none"/></g></g><g class="mark-text role-legend-title" pointer-events="none"><text text-anchor="start" transform="translate(0,9)" font-family="sans-serif" font-size="11px" font-weight="bold" fill="#000" opacity="1">clade</text></g></g><path class="foreground" aria-hidden="true" d="" pointer-events="none" display="none"/></g></g><g class="mark-group role-legend" role="graphics-symbol" aria-roledescription="legend" aria-label="Symbol legend titled 'exclude top 5 mutations/clade' for shape with 1 value: yes"><g transform="translate(203,245)"><path class="background" aria-hidden="true" d="M0,0h158v29h-158Z" pointer-events="none"/><g><g class="mark-group role-legend-entry"><g transform="translate(0,16)"><path class="background" aria-hidden="true" d="M0,0h0v0h0Z" pointer-events="none"/><g><g class="mark-group role-scope excluded_legend_entries" role="graphics-object" aria-roledescription="group mark container"><g transform="translate(0,0)"><path class="background" aria-hidden="true" d="M0,0h31.5615234375v12.5h-31.5615234375Z" opacity="1"/><g><g class="mark-symbol role-legend-symbol excluded_legend_symbols"><path transform="translate(6,6)" d="M5,0A5,5,0,1,1,-5,0A5,5,0,1,1,5,0" fill="black" fill-opacity="0.9" stroke="black" stroke-width="1.5" opacity="0.9"/></g><g class="mark-text role-legend-label excluded_legend_labels"><text text-anchor="start" transform="translate(16,9)" font-family="sans-serif" font-size="10px" fill="#000" opacity="1">yes</text></g></g><path class="foreground" aria-hidden="true" d="" display="none"/></g></g></g><path class="foreground" aria-hidden="true" d="" pointer-events="none" display="none"/></g></g><g class="mark-text role-legend-title" pointer-events="none"><text text-anchor="start" transform="translate(0,9)" font-family="sans-serif" font-size="11px" font-weight="bold" fill="#000" opacity="1">exclude top 5 mutations/clade</text></g></g><path class="foreground" aria-hidden="true" d="" pointer-events="none" display="none"/></g></g><g class="mark-group role-title"><g transform="translate(92.01267790368522,-17)"><path class="background" aria-hidden="true" d="M0,0h0v0h0Z" pointer-events="none"/><g><g class="mark-text role-title-text" role="graphics-symbol" aria-roledescription="title" aria-label="Title text 'all samples, whole genome, +/- top mutations'" pointer-events="none"><text text-anchor="middle" transform="translate(0,10)" font-family="sans-serif" font-size="13px" font-weight="bold" fill="#000" opacity="1">all samples, whole genome, +/- top mutations</text></g></g><path class="foreground" aria-hidden="true" d="" pointer-events="none" display="none"/></g></g></g><path class="foreground" aria-hidden="true" d="" display="none"/></g></g></g></svg>