<svg xmlns="http://www.w3.org/2000/svg" xmlns:xlink="http://www.w3.org/1999/xlink" version="1.1" class="marks" width="351.66285347443136" height="342" viewBox="0 0 351.66285347443136 342"><rect width="351.66285347443136" height="342" fill="white"/><g fill="none" stroke-miterlimit="10" transform="translate(20,22)"><g class="mark-group role-frame root" role="graphics-object" aria-roledescription="group mark container"><g transform="translate(0,0)"><path class="background" aria-hidden="true" d="M0.5,0.5h178.66285347443136v300h-178.66285347443136Z" stroke="#ddd"/><g><g class="mark-group role-axis" role="graphics-symbol" aria-roledescription="axis" aria-label="X-axis titled 'PC2 (23% variance)' for a linear scale with values from −2 to 4"><g transform="translate(0.5,300.5)"><path class="background" aria-hidden="true" d="M0,0h0v0h0Z" pointer-events="none"/><g><g class="mark-rule role-axis-domain" pointer-events="none"><line transform="translate(0,0)" x2="178.66285347443136" y2="0" stroke="#888" stroke-width="1" opacity="1"/></g><g class="mark-text role-axis-title" pointer-events="none"><text text-anchor="middle" transform="translate(89.33142673721568,13)" font-family="sans-serif" font-size="11px" font-weight="bold" fill="#000" opacity="1">PC2 (23% variance)</text></g></g><path class="foreground" aria-hidden="true" d="" pointer-events="none" display="none"/></g></g><g class="mark-group role-axis" role="graphics-symbol" aria-roledescription="axis" aria-label="Y-axis titled 'PC1 (39% variance)' for a linear scale with values from −3 to 4"><g transform="translate(0.5,0.5)"><path class="background" aria-hidden="true" d="M0,0h0v0h0Z" pointer-events="none"/><g><g class="mark-rule role-axis-domain" pointer-events="none"><line transform="translate(0,300)" x2="0" y2="-300" stroke="#888" stroke-width="1" opacity="1"/></g><g class="mark-text role-axis-title" pointer-events="none"><text text-anchor="middle" transform="translate(-4,150) rotate(-90) translate(0,-2)" font-family="sans-serif" font-size="11px" font-weight="bold" fill="#000" opacity="1">PC1 (39% variance)</text></g></g><path class="foreground" aria-hidden="true" d="" pointer-events="none" display="none"/></g></g><g class="mark-symbol role-mark marks" role="graphics-object" aria-roledescription="symbol mark container"><path aria-label="clade: 20A (B.1); total_count: 17202; PC2 (23% variance): 1.24531347906; PC1 (39% variance): −2.38427573327" role="graphics-symbol" aria-roledescription="point" transform="translate(98.72653421155877,283.6768397100582)" d="M4.031128874149275,0A4.031128874149275,4.031128874149275,0,1,1,-4.031128874149275,0A4.031128874149275,4.031128874149275,0,1,1,4.031128874149275,0" fill="rgb(72, 26, 108)" stroke="black" stroke-width="1.5" opacity="0.9"/><path aria-label="clade: 20B (B.1.1); total_count: 14121; PC2 (23% variance): −0.871878655103; PC1 (39% variance): −2.51572383302" role="graphics-symbol" aria-roledescription="point" transform="translate(37.16447282617344,290)" d="M4.031128874149275,0A4.031128874149275,4.031128874149275,0,1,1,-4.031128874149275,0A4.031128874149275,4.031128874149275,0,1,1,4.031128874149275,0" fill="rgb(71, 47, 125)" stroke="black" stroke-width="1.5" opacity="0.9"/><path aria-label="clade: 20C (B.1.367); total_count: 9344; PC2 (23% variance): 0.240482474153; PC1 (39% variance): −1.09724641113" role="graphics-symbol" aria-roledescription="point" transform="translate(69.50884205792197,221.76576821354809)" d="M4.031128874149275,0A4.031128874149275,4.031128874149275,0,1,1,-4.031128874149275,0A4.031128874149275,4.031128874149275,0,1,1,4.031128874149275,0" fill="rgb(65, 68, 135)" stroke="black" stroke-width="1.5" opacity="0.9"/><path aria-label="clade: 20E (B.1.177); total_count: 10454; PC2 (23% variance): −1.33106656835; PC1 (39% variance): −1.38561490487" role="graphics-symbol" aria-roledescription="point" transform="translate(23.81256486922689,235.63740433403473)" d="M4.031128874149275,0A4.031128874149275,4.031128874149275,0,1,1,-4.031128874149275,0A4.031128874149275,4.031128874149275,0,1,1,4.031128874149275,0" fill="rgb(57, 86, 140)" stroke="black" stroke-width="1.5" opacity="0.9"/><path aria-label="clade: 20G (B.1.2); total_count: 14019; PC2 (23% variance): −1.80609701788; PC1 (39% variance): −1.57583629678" role="graphics-symbol" aria-roledescription="point" transform="translate(10.000000000000012,244.78778652967898)" d="M4.031128874149275,0A4.031128874149275,4.031128874149275,0,1,1,-4.031128874149275,0A4.031128874149275,4.031128874149275,0,1,1,4.031128874149275,0" fill="rgb(49, 104, 142)" stroke="black" stroke-width="1.5" opacity="0.9"/><path aria-label="clade: 20I (Alpha); total_count: 60858; PC2 (23% variance): −1.10160104892; PC1 (39% variance): −2.031063606" role="graphics-symbol" aria-roledescription="point" transform="translate(30.484784251251636,266.68597486432225)" d="M4.031128874149275,0A4.031128874149275,4.031128874149275,0,1,1,-4.031128874149275,0A4.031128874149275,4.031128874149275,0,1,1,4.031128874149275,0" fill="rgb(42, 120, 142)" stroke="black" stroke-width="1.5" opacity="0.9"/><path aria-label="clade: 21C (Epsilon); total_count: 6308; PC2 (23% variance): −1.55686072152; PC1 (39% variance): −2.07464947652" role="graphics-symbol" aria-roledescription="point" transform="translate(17.24709861153458,268.78262324649904)" d="M4.031128874149275,0A4.031128874149275,4.031128874149275,0,1,1,-4.031128874149275,0A4.031128874149275,4.031128874149275,0,1,1,4.031128874149275,0" fill="rgb(35, 136, 142)" stroke="black" stroke-width="1.5" opacity="0.9"/><path aria-label="clade: 21I (Delta); total_count: 24117; PC2 (23% variance): 3.36683324082; PC1 (39% variance): −0.610189918264" role="graphics-symbol" aria-roledescription="point" transform="translate(160.41443097630392,198.33647345397017)" d="M4.031128874149275,0A4.031128874149275,4.031128874149275,0,1,1,-4.031128874149275,0A4.031128874149275,4.031128874149275,0,1,1,4.031128874149275,0" fill="rgb(31, 152, 139)" stroke="black" stroke-width="1.5" opacity="0.9"/><path aria-label="clade: 21J (Delta); total_count: 282051; PC2 (23% variance): 3.65050625045; PC1 (39% variance): −0.156841782154" role="graphics-symbol" aria-roledescription="point" transform="translate(168.66285347443136,176.52868058972396)" d="M4.031128874149275,0A4.031128874149275,4.031128874149275,0,1,1,-4.031128874149275,0A4.031128874149275,4.031128874149275,0,1,1,4.031128874149275,0" fill="rgb(34, 168, 132)" stroke="black" stroke-width="1.5" opacity="0.9"/><path aria-label="clade: 21K (Omicron BA.1); total_count: 113721; PC2 (23% variance): 0.280224295638; PC1 (39% variance): 3.01484369009" role="graphics-symbol" aria-roledescription="point" transform="translate(70.66442374289097,23.95838350458357)" d="M4.031128874149275,0A4.031128874149275,4.031128874149275,0,1,1,-4.031128874149275,0A4.031128874149275,4.031128874149275,0,1,1,4.031128874149275,0" fill="rgb(53, 183, 121)" stroke="black" stroke-width="1.5" opacity="0.9"/><path aria-label="clade: 21L (Omicron BA.2); total_count: 83475; PC2 (23% variance): 0.640400182808; PC1 (39% variance): 1.79863133192" role="graphics-symbol" aria-roledescription="point" transform="translate(81.1373372388658,82.46288605637017)" d="M4.031128874149275,0A4.031128874149275,4.031128874149275,0,1,1,-4.031128874149275,0A4.031128874149275,4.031128874149275,0,1,1,4.031128874149275,0" fill="rgb(84, 197, 104)" stroke="black" stroke-width="1.5" opacity="0.9"/><path aria-label="clade: 22A (Omicron BA.4); total_count: 11413; PC2 (23% variance): −1.54810338618; PC1 (39% variance): 3.30501551923" role="graphics-symbol" aria-roledescription="point" transform="translate(17.501737577476295,10.000000000000032)" d="M4.031128874149275,0A4.031128874149275,4.031128874149275,0,1,1,-4.031128874149275,0A4.031128874149275,4.031128874149275,0,1,1,4.031128874149275,0" fill="rgb(122, 209, 81)" stroke="black" stroke-width="1.5" opacity="0.9"/><path aria-label="clade: 22B (Omicron BA.5); total_count: 64765; PC2 (23% variance): −0.430779054172; PC1 (39% variance): 3.08631125688" role="graphics-symbol" aria-roledescription="point" transform="translate(49.99042294727417,20.520518056429328)" d="M4.031128874149275,0A4.031128874149275,4.031128874149275,0,1,1,-4.031128874149275,0A4.031128874149275,4.031128874149275,0,1,1,4.031128874149275,0" fill="rgb(165, 219, 54)" stroke="black" stroke-width="1.5" opacity="0.9"/><path aria-label="clade: 22C (Omicron BA.2.12.1); total_count: 18958; PC2 (23% variance): −0.777373470822; PC1 (39% variance): 2.62664016388" role="graphics-symbol" aria-roledescription="point" transform="translate(39.912420857003646,42.63246952006714)" d="M4.031128874149275,0A4.031128874149275,4.031128874149275,0,1,1,-4.031128874149275,0A4.031128874149275,4.031128874149275,0,1,1,4.031128874149275,0" fill="rgb(210, 226, 27)" stroke="black" stroke-width="1.5" opacity="0.9"/></g><g class="mark-group role-legend" role="graphics-symbol" aria-roledescription="legend" aria-label="Symbol legend titled 'clade' for fill color with 14 values: 20A (B.1), 20B (B.1.1), 20C (B.1.367), 20E (B.1.177), 20G (B.1.2), ending with 22C (Omicron BA.2.12.1)"><g transform="translate(197,0)"><path class="background" aria-hidden="true" d="M0,0h129v237h-129Z" pointer-events="none"/><g><g class="mark-group role-legend-entry"><g transform="translate(0,16)"><path class="background" aria-hidden="true" d="M0,0h0v0h0Z" pointer-events="none"/><g><g class="mark-group role-scope clade_legend_entries" role="graphics-object" aria-roledescription="group mark container"><g transform="translate(0,0)"><path class="background" aria-hidden="true" d="M0,0h128.265625v12.5h-128.265625Z" opacity="1"/><g><g class="mark-symbol role-legend-symbol clade_legend_symbols"><path transform="translate(6,6)" d="M5,0A5,5,0,1,1,-5,0A5,5,0,1,1,5,0" fill="rgb(72, 26, 108)" stroke="black" stroke-width="1.5" opacity="0.9"/></g><g class="mark-text role-legend-label clade_legend_labels"><text text-anchor="start" transform="translate(16,9)" font-family="sans-serif" font-size="10px" fill="#000" opacity="1">20A (B.1)</text></g></g><path class="foreground" aria-hidden="true" d="" display="none"/></g><g transform="translate(0,16)"><path class="background" aria-hidden="true" d="M0,0h128.265625v12.5h-128.265625Z" opacity="1"/><g><g class="mark-symbol role-legend-symbol clade_legend_symbols"><path transform="translate(6,6)" d="M5,0A5,5,0,1,1,-5,0A5,5,0,1,1,5,0" fill="rgb(71, 47, 125)" stroke="black" stroke-width="1.5" opacity="0.9"/></g><g class="mark-text role-legend-label clade_legend_labels"><text text-anchor="start" transform="translate(16,9)" font-family="sans-serif" font-size="10px" fill="#000" opacity="1">20B (B.1.1)</text></g></g><path class="foreground" aria-hidden="true" d="" display="none"/></g><g transform="translate(0,32)"><path class="background" aria-hidden="true" d="M0,0h128.265625v12.5h-128.265625Z" opacity="1"/><g><g class="mark-symbol role-legend-symbol clade_legend_symbols"><path transform="translate(6,6)" d="M5,0A5,5,0,1,1,-5,0A5,5,0,1,1,5,0" fill="rgb(65, 68, 135)" stroke="black" stroke-width="1.5" opacity="0.9"/></g><g class="mark-text role-legend-label clade_legend_labels"><text text-anchor="start" transform="translate(16,9)" font-family="sans-serif" font-size="10px" fill="#000" opacity="1">20C (B.1.367)</text></g></g><path class="foreground" aria-hidden="true" d="" display="none"/></g><g transform="translate(0,48)"><path class="background" aria-hidden="true" d="M0,0h128.265625v12.5h-128.265625Z" opacity="1"/><g><g class="mark-symbol role-legend-symbol clade_legend_symbols"><path transform="translate(6,6)" d="M5,0A5,5,0,1,1,-5,0A5,5,0,1,1,5,0" fill="rgb(57, 86, 140)" stroke="black" stroke-width="1.5" opacity="0.9"/></g><g class="mark-text role-legend-label clade_legend_labels"><text text-anchor="start" transform="translate(16,9)" font-family="sans-serif" font-size="10px" fill="#000" opacity="1">20E (B.1.177)</text></g></g><path class="foreground" aria-hidden="true" d="" display="none"/></g><g transform="translate(0,64)"><path class="background" aria-hidden="true" d="M0,0h128.265625v12.5h-128.265625Z" opacity="1"/><g><g class="mark-symbol role-legend-symbol clade_legend_symbols"><path transform="translate(6,6)" d="M5,0A5,5,0,1,1,-5,0A5,5,0,1,1,5,0" fill="rgb(49, 104, 142)" stroke="black" stroke-width="1.5" opacity="0.9"/></g><g class="mark-text role-legend-label clade_legend_labels"><text text-anchor="start" transform="translate(16,9)" font-family="sans-serif" font-size="10px" fill="#000" opacity="1">20G (B.1.2)</text></g></g><path class="foreground" aria-hidden="true" d="" display="none"/></g><g transform="translate(0,80)"><path class="background" aria-hidden="true" d="M0,0h128.265625v12.5h-128.265625Z" opacity="1"/><g><g class="mark-symbol role-legend-symbol clade_legend_symbols"><path transform="translate(6,6)" d="M5,0A5,5,0,1,1,-5,0A5,5,0,1,1,5,0" fill="rgb(42, 120, 142)" stroke="black" stroke-width="1.5" opacity="0.9"/></g><g class="mark-text role-legend-label clade_legend_labels"><text text-anchor="start" transform="translate(16,9)" font-family="sans-serif" font-size="10px" fill="#000" opacity="1">20I (Alpha)</text></g></g><path class="foreground" aria-hidden="true" d="" display="none"/></g><g transform="translate(0,96)"><path class="background" aria-hidden="true" d="M0,0h128.265625v12.5h-128.265625Z" opacity="1"/><g><g class="mark-symbol role-legend-symbol clade_legend_symbols"><path transform="translate(6,6)" d="M5,0A5,5,0,1,1,-5,0A5,5,0,1,1,5,0" fill="rgb(35, 136, 142)" stroke="black" stroke-width="1.5" opacity="0.9"/></g><g class="mark-text role-legend-label clade_legend_labels"><text text-anchor="start" transform="translate(16,9)" font-family="sans-serif" font-size="10px" fill="#000" opacity="1">21C (Epsilon)</text></g></g><path class="foreground" aria-hidden="true" d="" display="none"/></g><g transform="translate(0,112)"><path class="background" aria-hidden="true" d="M0,0h128.265625v12.5h-128.265625Z" opacity="1"/><g><g class="mark-symbol role-legend-symbol clade_legend_symbols"><path transform="translate(6,6)" d="M5,0A5,5,0,1,1,-5,0A5,5,0,1,1,5,0" fill="rgb(31, 152, 139)" stroke="black" stroke-width="1.5" opacity="0.9"/></g><g class="mark-text role-legend-label clade_legend_labels"><text text-anchor="start" transform="translate(16,9)" font-family="sans-serif" font-size="10px" fill="#000" opacity="1">21I (Delta)</text></g></g><path class="foreground" aria-hidden="true" d="" display="none"/></g><g transform="translate(0,128)"><path class="background" aria-hidden="true" d="M0,0h128.265625v12.5h-128.265625Z" opacity="1"/><g><g class="mark-symbol role-legend-symbol clade_legend_symbols"><path transform="translate(6,6)" d="M5,0A5,5,0,1,1,-5,0A5,5,0,1,1,5,0" fill="rgb(34, 168, 132)" stroke="black" stroke-width="1.5" opacity="0.9"/></g><g class="mark-text role-legend-label clade_legend_labels"><text text-anchor="start" transform="translate(16,9)" font-family="sans-serif" font-size="10px" fill="#000" opacity="1">21J (Delta)</text></g></g><path class="foreground" aria-hidden="true" d="" display="none"/></g><g transform="translate(0,144)"><path class="background" aria-hidden="true" d="M0,0h128.265625v12.5h-128.265625Z" opacity="1"/><g><g class="mark-symbol role-legend-symbol clade_legend_symbols"><path transform="translate(6,6)" d="M5,0A5,5,0,1,1,-5,0A5,5,0,1,1,5,0" fill="rgb(53, 183, 121)" stroke="black" stroke-width="1.5" opacity="0.9"/></g><g class="mark-text role-legend-label clade_legend_labels"><text text-anchor="start" transform="translate(16,9)" font-family="sans-serif" font-size="10px" fill="#000" opacity="1">21K (Omicron BA.1)</text></g></g><path class="foreground" aria-hidden="true" d="" display="none"/></g><g transform="translate(0,160)"><path class="background" aria-hidden="true" d="M0,0h128.265625v12.5h-128.265625Z" opacity="1"/><g><g class="mark-symbol role-legend-symbol clade_legend_symbols"><path transform="translate(6,6)" d="M5,0A5,5,0,1,1,-5,0A5,5,0,1,1,5,0" fill="rgb(84, 197, 104)" stroke="black" stroke-width="1.5" opacity="0.9"/></g><g class="mark-text role-legend-label clade_legend_labels"><text text-anchor="start" transform="translate(16,9)" font-family="sans-serif" font-size="10px" fill="#000" opacity="1">21L (Omicron BA.2)</text></g></g><path class="foreground" aria-hidden="true" d="" display="none"/></g><g transform="translate(0,176)"><path class="background" aria-hidden="true" d="M0,0h128.265625v12.5h-128.265625Z" opacity="1"/><g><g class="mark-symbol role-legend-symbol clade_legend_symbols"><path transform="translate(6,6)" d="M5,0A5,5,0,1,1,-5,0A5,5,0,1,1,5,0" fill="rgb(122, 209, 81)" stroke="black" stroke-width="1.5" opacity="0.9"/></g><g class="mark-text role-legend-label clade_legend_labels"><text text-anchor="start" transform="translate(16,9)" font-family="sans-serif" font-size="10px" fill="#000" opacity="1">22A (Omicron BA.4)</text></g></g><path class="foreground" aria-hidden="true" d="" display="none"/></g><g transform="translate(0,192)"><path class="background" aria-hidden="true" d="M0,0h128.265625v12.5h-128.265625Z" opacity="1"/><g><g class="mark-symbol role-legend-symbol clade_legend_symbols"><path transform="translate(6,6)" d="M5,0A5,5,0,1,1,-5,0A5,5,0,1,1,5,0" fill="rgb(165, 219, 54)" stroke="black" stroke-width="1.5" opacity="0.9"/></g><g class="mark-text role-legend-label clade_legend_labels"><text text-anchor="start" transform="translate(16,9)" font-family="sans-serif" font-size="10px" fill="#000" opacity="1">22B (Omicron BA.5)</text></g></g><path class="foreground" aria-hidden="true" d="" display="none"/></g><g transform="translate(0,208)"><path class="background" aria-hidden="true" d="M0,0h128.265625v12.5h-128.265625Z" opacity="1"/><g><g class="mark-symbol role-legend-symbol clade_legend_symbols"><path transform="translate(6,6)" d="M5,0A5,5,0,1,1,-5,0A5,5,0,1,1,5,0" fill="rgb(210, 226, 27)" stroke="black" stroke-width="1.5" opacity="0.9"/></g><g class="mark-text role-legend-label clade_legend_labels"><text text-anchor="start" transform="translate(16,9)" font-family="sans-serif" font-size="10px" fill="#000" opacity="1">22C (Omicron BA.2.12.1)</text></g></g><path class="foreground" aria-hidden="true" d="" display="none"/></g></g></g><path class="foreground" aria-hidden="true" d="" pointer-events="none" display="none"/></g></g><g class="mark-text role-legend-title" pointer-events="none"><text text-anchor="start" transform="translate(0,9)" font-family="sans-serif" font-size="11px" font-weight="bold" fill="#000" opacity="1">clade</text></g></g><path class="foreground" aria-hidden="true" d="" pointer-events="none" display="none"/></g></g><g class="mark-group role-title"><g transform="translate(89.33142673721568,-17)"><path class="background" aria-hidden="true" d="M0,0h0v0h0Z" pointer-events="none"/><g><g class="mark-text role-title-text" role="graphics-symbol" aria-roledescription="title" aria-label="Title text 'all samples, whole genome'" pointer-events="none"><text text-anchor="middle" transform="translate(0,10)" font-family="sans-serif" font-size="13px" font-weight="bold" fill="#000" opacity="1">all samples, whole genome</text></g></g><path class="foreground" aria-hidden="true" d="" pointer-events="none" display="none"/></g></g></g><path class="foreground" aria-hidden="true" d="" display="none"/></g></g></g></svg>