<svg xmlns="http://www.w3.org/2000/svg" xmlns:xlink="http://www.w3.org/1999/xlink" version="1.1" class="marks" width="475" height="298" viewBox="0 0 475 298"><rect width="475" height="298" fill="white"/><g fill="none" stroke-miterlimit="10" transform="translate(190,5)"><g class="mark-group role-frame root" role="graphics-object" aria-roledescription="group mark container"><g transform="translate(0,0)"><path class="background" aria-hidden="true" d="M0.5,0.5h270v256h-270Z" stroke="#ddd"/><g><g class="mark-group role-axis" aria-hidden="true"><g transform="translate(0.5,256.5)"><path class="background" aria-hidden="true" d="M0,0h0v0h0Z" pointer-events="none"/><g><g class="mark-rule role-axis-grid" pointer-events="none"><line transform="translate(21,0)" x2="0" y2="-256" stroke="#ddd" stroke-width="1" opacity="1"/><line transform="translate(62,0)" x2="0" y2="-256" stroke="#ddd" stroke-width="1" opacity="1"/><line transform="translate(104,0)" x2="0" y2="-256" stroke="#ddd" stroke-width="1" opacity="1"/><line transform="translate(145,0)" x2="0" y2="-256" stroke="#ddd" stroke-width="1" opacity="1"/><line transform="translate(187,0)" x2="0" y2="-256" stroke="#ddd" stroke-width="1" opacity="1"/><line transform="translate(228,0)" x2="0" y2="-256" stroke="#ddd" stroke-width="1" opacity="1"/><line transform="translate(270,0)" x2="0" y2="-256" stroke="#ddd" stroke-width="1" opacity="1"/></g></g><path class="foreground" aria-hidden="true" d="" pointer-events="none" display="none"/></g></g><g class="mark-group role-axis" role="graphics-symbol" aria-roledescription="axis" aria-label="X-axis titled 'similarity predicted to empirical nucleotide frequencies' for a linear scale with values from 0.94 to 1.00"><g transform="translate(0.5,256.5)"><path class="background" aria-hidden="true" d="M0,0h0v0h0Z" pointer-events="none"/><g><g class="mark-rule role-axis-tick" pointer-events="none"><line transform="translate(21,0)" x2="0" y2="5" stroke="#888" stroke-width="1" opacity="1"/><line transform="translate(62,0)" x2="0" y2="5" stroke="#888" stroke-width="1" opacity="1"/><line transform="translate(104,0)" x2="0" y2="5" stroke="#888" stroke-width="1" opacity="1"/><line transform="translate(145,0)" x2="0" y2="5" stroke="#888" stroke-width="1" opacity="1"/><line transform="translate(187,0)" x2="0" y2="5" stroke="#888" stroke-width="1" opacity="1"/><line transform="translate(228,0)" x2="0" y2="5" stroke="#888" stroke-width="1" opacity="1"/><line transform="translate(270,0)" x2="0" y2="5" stroke="#888" stroke-width="1" opacity="1"/></g><g class="mark-text role-axis-label" pointer-events="none"><text text-anchor="middle" transform="translate(20.769230769230344,15)" font-family="sans-serif" font-size="10px" fill="#000" opacity="1">0.94</text><text text-anchor="middle" transform="translate(62.30769230769195,15)" font-family="sans-serif" font-size="10px" fill="#000" opacity="1">0.95</text><text text-anchor="middle" transform="translate(103.84615384615357,15)" font-family="sans-serif" font-size="10px" fill="#000" opacity="1">0.96</text><text text-anchor="middle" transform="translate(145.38461538461516,15)" font-family="sans-serif" font-size="10px" fill="#000" opacity="1">0.97</text><text text-anchor="middle" transform="translate(186.92307692307676,15)" font-family="sans-serif" font-size="10px" fill="#000" opacity="1">0.98</text><text text-anchor="middle" transform="translate(228.4615384615384,15)" font-family="sans-serif" font-size="10px" fill="#000" opacity="1">0.99</text><text text-anchor="end" transform="translate(270,15)" font-family="sans-serif" font-size="10px" fill="#000" opacity="1">1.00</text></g><g class="mark-rule role-axis-domain" pointer-events="none"><line transform="translate(0,0)" x2="270" y2="0" stroke="#888" stroke-width="1" opacity="1"/></g><g class="mark-text role-axis-title" pointer-events="none"><text text-anchor="middle" transform="translate(135,30)" font-family="sans-serif" font-size="11px" font-weight="bold" fill="#000" opacity="1">similarity predicted to empirical nucleotide frequencies</text></g></g><path class="foreground" aria-hidden="true" d="" pointer-events="none" display="none"/></g></g><g class="mark-group role-axis" role="graphics-symbol" aria-roledescription="axis" aria-label="Y-axis for a discrete scale with 16 values: dengue virus 3, dengue virus 2, RSV-B, RSV-A, dengue virus 4, ending with SARS-CoV-2 clade 21I (Delta)"><g transform="translate(0.5,0.5)"><path class="background" aria-hidden="true" d="M0,0h0v0h0Z" pointer-events="none"/><g><g class="mark-rule role-axis-tick" pointer-events="none"><line transform="translate(0,8)" x2="-5" y2="0" stroke="#888" stroke-width="1" opacity="1"/><line transform="translate(0,24)" x2="-5" y2="0" stroke="#888" stroke-width="1" opacity="1"/><line transform="translate(0,40)" x2="-5" y2="0" stroke="#888" stroke-width="1" opacity="1"/><line transform="translate(0,56)" x2="-5" y2="0" stroke="#888" stroke-width="1" opacity="1"/><line transform="translate(0,72)" x2="-5" y2="0" stroke="#888" stroke-width="1" opacity="1"/><line transform="translate(0,88)" x2="-5" y2="0" stroke="#888" stroke-width="1" opacity="1"/><line transform="translate(0,104)" x2="-5" y2="0" stroke="#888" stroke-width="1" opacity="1"/><line transform="translate(0,120)" x2="-5" y2="0" stroke="#888" stroke-width="1" opacity="1"/><line transform="translate(0,136)" x2="-5" y2="0" stroke="#888" stroke-width="1" opacity="1"/><line transform="translate(0,152)" x2="-5" y2="0" stroke="#888" stroke-width="1" opacity="1"/><line transform="translate(0,168)" x2="-5" y2="0" stroke="#888" stroke-width="1" opacity="1"/><line transform="translate(0,184)" x2="-5" y2="0" stroke="#888" stroke-width="1" opacity="1"/><line transform="translate(0,200)" x2="-5" y2="0" stroke="#888" stroke-width="1" opacity="1"/><line transform="translate(0,216)" x2="-5" y2="0" stroke="#888" stroke-width="1" opacity="1"/><line transform="translate(0,232)" x2="-5" y2="0" stroke="#888" stroke-width="1" opacity="1"/><line transform="translate(0,248)" x2="-5" y2="0" stroke="#888" stroke-width="1" opacity="1"/></g><g class="mark-text role-axis-label" pointer-events="none"><text text-anchor="end" transform="translate(-7,11)" font-family="sans-serif" font-size="10px" fill="#000" opacity="1">dengue virus 3</text><text text-anchor="end" transform="translate(-7,27)" font-family="sans-serif" font-size="10px" fill="#000" opacity="1">dengue virus 2</text><text text-anchor="end" transform="translate(-7,43)" font-family="sans-serif" font-size="10px" fill="#000" opacity="1">RSV-B</text><text text-anchor="end" transform="translate(-7,59)" font-family="sans-serif" font-size="10px" fill="#000" opacity="1">RSV-A</text><text text-anchor="end" transform="translate(-7,75)" font-family="sans-serif" font-size="10px" fill="#000" opacity="1">dengue virus 4</text><text text-anchor="end" transform="translate(-7,91)" font-family="sans-serif" font-size="10px" fill="#000" opacity="1">dengue virus 1</text><text text-anchor="end" transform="translate(-7,107)" font-family="sans-serif" font-size="10px" fill="#000" opacity="1">influenza B Victoria</text><text text-anchor="end" transform="translate(-7,123)" font-family="sans-serif" font-size="10px" fill="#000" opacity="1">influenza B Yamagata</text><text text-anchor="end" transform="translate(-7,139)" font-family="sans-serif" font-size="10px" fill="#000" opacity="1">enterovirus A71</text><text text-anchor="end" transform="translate(-7,155)" font-family="sans-serif" font-size="10px" fill="#000" opacity="1">influenza A H1N1</text><text text-anchor="end" transform="translate(-7,171)" font-family="sans-serif" font-size="10px" fill="#000" opacity="1">influenza A H3N2</text><text text-anchor="end" transform="translate(-7,187)" font-family="sans-serif" font-size="10px" fill="#000" opacity="1">West Nile virus</text><text text-anchor="end" transform="translate(-7,203)" font-family="sans-serif" font-size="10px" fill="#000" opacity="1">enterovirus D68</text><text text-anchor="end" transform="translate(-7,219)" font-family="sans-serif" font-size="10px" fill="#000" opacity="1">SARS-CoV-2 clade 22B (Omicron BA.5)</text><text text-anchor="end" transform="translate(-7,235)" font-family="sans-serif" font-size="10px" fill="#000" opacity="1">SARS-CoV-2 clade 20A (B.1)</text><text text-anchor="end" transform="translate(-7,251)" font-family="sans-serif" font-size="10px" fill="#000" opacity="1">SARS-CoV-2 clade 21I (Delta)</text></g><g class="mark-rule role-axis-domain" pointer-events="none"><line transform="translate(0,0)" x2="0" y2="256" stroke="#888" stroke-width="1" opacity="1"/></g></g><path class="foreground" aria-hidden="true" d="" pointer-events="none" display="none"/></g></g><g class="mark-symbol role-mark marks" role="graphics-object" aria-roledescription="symbol mark container"><path aria-label="is_sars: false; similarity predicted to empirical nucleotide frequencies: 0.999838861598; virus: dengue virus 3" role="graphics-symbol" aria-roledescription="point" transform="translate(269.33065587022696,8)" d="M4.183300132670378,0A4.183300132670378,4.183300132670378,0,1,1,-4.183300132670378,0A4.183300132670378,4.183300132670378,0,1,1,4.183300132670378,0" fill="gray" stroke-width="2" opacity="1"/><path aria-label="is_sars: false; similarity predicted to empirical nucleotide frequencies: 0.999823693902; virus: dengue virus 2" role="graphics-symbol" aria-roledescription="point" transform="translate(269.2676515936803,24)" d="M4.183300132670378,0A4.183300132670378,4.183300132670378,0,1,1,-4.183300132670378,0A4.183300132670378,4.183300132670378,0,1,1,4.183300132670378,0" fill="gray" stroke-width="2" opacity="1"/><path aria-label="is_sars: false; similarity predicted to empirical nucleotide frequencies: 0.999743152677; virus: RSV-B" role="graphics-symbol" aria-roledescription="point" transform="translate(268.9330957358874,40)" d="M4.183300132670378,0A4.183300132670378,4.183300132670378,0,1,1,-4.183300132670378,0A4.183300132670378,4.183300132670378,0,1,1,4.183300132670378,0" fill="gray" stroke-width="2" opacity="1"/><path aria-label="is_sars: false; similarity predicted to empirical nucleotide frequencies: 0.999181671754; virus: RSV-A" role="graphics-symbol" aria-roledescription="point" transform="translate(266.6007903644948,56)" d="M4.183300132670378,0A4.183300132670378,4.183300132670378,0,1,1,-4.183300132670378,0A4.183300132670378,4.183300132670378,0,1,1,4.183300132670378,0" fill="gray" stroke-width="2" opacity="1"/><path aria-label="is_sars: false; similarity predicted to empirical nucleotide frequencies: 0.998817351999; virus: dengue virus 4" role="graphics-symbol" aria-roledescription="point" transform="translate(265.08746214773424,72)" d="M4.183300132670378,0A4.183300132670378,4.183300132670378,0,1,1,-4.183300132670378,0A4.183300132670378,4.183300132670378,0,1,1,4.183300132670378,0" fill="gray" stroke-width="2" opacity="1"/><path aria-label="is_sars: false; similarity predicted to empirical nucleotide frequencies: 0.998579216091; virus: dengue virus 1" role="graphics-symbol" aria-roledescription="point" transform="translate(264.098282225724,88)" d="M4.183300132670378,0A4.183300132670378,4.183300132670378,0,1,1,-4.183300132670378,0A4.183300132670378,4.183300132670378,0,1,1,4.183300132670378,0" fill="gray" stroke-width="2" opacity="1"/><path aria-label="is_sars: false; similarity predicted to empirical nucleotide frequencies: 0.997791308169; virus: influenza B Victoria" role="graphics-symbol" aria-roledescription="point" transform="translate(260.8254339319814,104)" d="M4.183300132670378,0A4.183300132670378,4.183300132670378,0,1,1,-4.183300132670378,0A4.183300132670378,4.183300132670378,0,1,1,4.183300132670378,0" fill="gray" stroke-width="2" opacity="1"/><path aria-label="is_sars: false; similarity predicted to empirical nucleotide frequencies: 0.996416152156; virus: influenza B Yamagata" role="graphics-symbol" aria-roledescription="point" transform="translate(255.11324741590025,120)" d="M4.183300132670378,0A4.183300132670378,4.183300132670378,0,1,1,-4.183300132670378,0A4.183300132670378,4.183300132670378,0,1,1,4.183300132670378,0" fill="gray" stroke-width="2" opacity="1"/><path aria-label="is_sars: false; similarity predicted to empirical nucleotide frequencies: 0.996077346828; virus: enterovirus A71" role="graphics-symbol" aria-roledescription="point" transform="translate(253.7059022090188,136)" d="M4.183300132670378,0A4.183300132670378,4.183300132670378,0,1,1,-4.183300132670378,0A4.183300132670378,4.183300132670378,0,1,1,4.183300132670378,0" fill="gray" stroke-width="2" opacity="1"/><path aria-label="is_sars: false; similarity predicted to empirical nucleotide frequencies: 0.994747996939; virus: influenza A H1N1" role="graphics-symbol" aria-roledescription="point" transform="translate(248.18398728612266,152)" d="M4.183300132670378,0A4.183300132670378,4.183300132670378,0,1,1,-4.183300132670378,0A4.183300132670378,4.183300132670378,0,1,1,4.183300132670378,0" fill="gray" stroke-width="2" opacity="1"/><path aria-label="is_sars: false; similarity predicted to empirical nucleotide frequencies: 0.99428713337; virus: influenza A H3N2" role="graphics-symbol" aria-roledescription="point" transform="translate(246.26963092197317,168)" d="M4.183300132670378,0A4.183300132670378,4.183300132670378,0,1,1,-4.183300132670378,0A4.183300132670378,4.183300132670378,0,1,1,4.183300132670378,0" fill="gray" stroke-width="2" opacity="1"/><path aria-label="is_sars: false; similarity predicted to empirical nucleotide frequencies: 0.987699664579; virus: West Nile virus" role="graphics-symbol" aria-roledescription="point" transform="translate(218.906299018463,184)" d="M4.183300132670378,0A4.183300132670378,4.183300132670378,0,1,1,-4.183300132670378,0A4.183300132670378,4.183300132670378,0,1,1,4.183300132670378,0" fill="gray" stroke-width="2" opacity="1"/><path aria-label="is_sars: false; similarity predicted to empirical nucleotide frequencies: 0.983619121746; virus: enterovirus D68" role="graphics-symbol" aria-roledescription="point" transform="translate(201.9563518678181,200)" d="M4.183300132670378,0A4.183300132670378,4.183300132670378,0,1,1,-4.183300132670378,0A4.183300132670378,4.183300132670378,0,1,1,4.183300132670378,0" fill="gray" stroke-width="2" opacity="1"/><path aria-label="is_sars: true; similarity predicted to empirical nucleotide frequencies: 0.977186858173; virus: SARS-CoV-2 clade 22B (Omicron BA.5)" role="graphics-symbol" aria-roledescription="point" transform="translate(175.23771856356686,216)" d="M-4.183300132670378,-4.183300132670378h8.366600265340756v8.366600265340756h-8.366600265340756Z" fill="#CC79A7" stroke-width="2" opacity="1"/><path aria-label="is_sars: true; similarity predicted to empirical nucleotide frequencies: 0.945030506974; virus: SARS-CoV-2 clade 20A (B.1)" role="graphics-symbol" aria-roledescription="point" transform="translate(41.6651828152895,232)" d="M-4.183300132670378,-4.183300132670378h8.366600265340756v8.366600265340756h-8.366600265340756Z" fill="#CC79A7" stroke-width="2" opacity="1"/><path aria-label="is_sars: true; similarity predicted to empirical nucleotide frequencies: 0.938672712004; virus: SARS-CoV-2 clade 21I (Delta)" role="graphics-symbol" aria-roledescription="point" transform="translate(15.255880633352117,248)" d="M-4.183300132670378,-4.183300132670378h8.366600265340756v8.366600265340756h-8.366600265340756Z" fill="#CC79A7" stroke-width="2" opacity="1"/></g></g><path class="foreground" aria-hidden="true" d="" display="none"/></g></g></g></svg>