<svg xmlns="http://www.w3.org/2000/svg" xmlns:xlink="http://www.w3.org/1999/xlink" version="1.1" class="marks" width="361.4185379815764" height="342" viewBox="0 0 361.4185379815764 342"><rect width="361.4185379815764" height="342" fill="white"/><g fill="none" stroke-miterlimit="10" transform="translate(20,22)"><g class="mark-group role-frame root" role="graphics-object" aria-roledescription="group mark container"><g transform="translate(0,0)"><path class="background" aria-hidden="true" d="M0.5,0.5h188.41853798157635v300h-188.41853798157635Z" stroke="#ddd"/><g><g class="mark-group role-axis" role="graphics-symbol" aria-roledescription="axis" aria-label="X-axis titled 'PC2 (27% variance)' for a linear scale with values from −3 to 3"><g transform="translate(0.5,300.5)"><path class="background" aria-hidden="true" d="M0,0h0v0h0Z" pointer-events="none"/><g><g class="mark-rule role-axis-domain" pointer-events="none"><line transform="translate(0,0)" x2="188.41853798157635" y2="0" stroke="#888" stroke-width="1" opacity="1"/></g><g class="mark-text role-axis-title" pointer-events="none"><text text-anchor="middle" transform="translate(94.20926899078817,13)" font-family="sans-serif" font-size="11px" font-weight="bold" fill="#000" opacity="1">PC2 (27% variance)</text></g></g><path class="foreground" aria-hidden="true" d="" pointer-events="none" display="none"/></g></g><g class="mark-group role-axis" role="graphics-symbol" aria-roledescription="axis" aria-label="Y-axis titled 'PC1 (44% variance)' for a linear scale with values from −3 to 4"><g transform="translate(0.5,0.5)"><path class="background" aria-hidden="true" d="M0,0h0v0h0Z" pointer-events="none"/><g><g class="mark-rule role-axis-domain" pointer-events="none"><line transform="translate(0,300)" x2="0" y2="-300" stroke="#888" stroke-width="1" opacity="1"/></g><g class="mark-text role-axis-title" pointer-events="none"><text text-anchor="middle" transform="translate(-4,150) rotate(-90) translate(0,-2)" font-family="sans-serif" font-size="11px" font-weight="bold" fill="#000" opacity="1">PC1 (44% variance)</text></g></g><path class="foreground" aria-hidden="true" d="" pointer-events="none" display="none"/></g></g><g class="mark-symbol role-mark marks" role="graphics-object" aria-roledescription="symbol mark container"><path aria-label="clade: 20A (B.1); partition: partition 1; total_count: 8402; PC2 (27% variance): −1.97325773859; PC1 (44% variance): −1.64293993344" role="graphics-symbol" aria-roledescription="point" transform="translate(26.926099099250592,229.61606614920066)" d="M4.031128874149275,0A4.031128874149275,4.031128874149275,0,1,1,-4.031128874149275,0A4.031128874149275,4.031128874149275,0,1,1,4.031128874149275,0" fill="rgb(72, 29, 111)" stroke="black" stroke-width="1.5" opacity="0.9"/><path aria-label="clade: 20A (B.1); partition: partition 2; total_count: 8800; PC2 (27% variance): −2.09440090869; PC1 (44% variance): 3.13112559195" role="graphics-symbol" aria-roledescription="point" transform="translate(23.224432342857114,34.838525133367604)" d="M-4.031128874149275,-4.031128874149275h8.06225774829855v8.06225774829855h-8.06225774829855Z" fill="rgb(72, 29, 111)" stroke="black" stroke-width="1.5" opacity="0.9"/><path aria-label="clade: 20B (B.1.1); partition: partition 1; total_count: 6792; PC2 (27% variance): −2.20352771882; PC1 (44% variance): −2.37081657988" role="graphics-symbol" aria-roledescription="point" transform="translate(19.889939073722214,259.3127727826538)" d="M4.031128874149275,0A4.031128874149275,4.031128874149275,0,1,1,-4.031128874149275,0A4.031128874149275,4.031128874149275,0,1,1,4.031128874149275,0" fill="rgb(69, 54, 129)" stroke="black" stroke-width="1.5" opacity="0.9"/><path aria-label="clade: 20B (B.1.1); partition: partition 2; total_count: 7329; PC2 (27% variance): −2.37133510262; PC1 (44% variance): 1.85758268623" role="graphics-symbol" aria-roledescription="point" transform="translate(14.762394420872475,86.79791995848048)" d="M-4.031128874149275,-4.031128874149275h8.06225774829855v8.06225774829855h-8.06225774829855Z" fill="rgb(69, 54, 129)" stroke="black" stroke-width="1.5" opacity="0.9"/><path aria-label="clade: 20E (B.1.177); partition: partition 1; total_count: 5094; PC2 (27% variance): −1.44514849096; PC1 (44% variance): −2.30822519613" role="graphics-symbol" aria-roledescription="point" transform="translate(43.063075241323375,256.75910112667697)" d="M4.031128874149275,0A4.031128874149275,4.031128874149275,0,1,1,-4.031128874149275,0A4.031128874149275,4.031128874149275,0,1,1,4.031128874149275,0" fill="rgb(61, 77, 138)" stroke="black" stroke-width="1.5" opacity="0.9"/><path aria-label="clade: 20E (B.1.177); partition: partition 2; total_count: 5360; PC2 (27% variance): −1.39768491594; PC1 (44% variance): 1.41269942207" role="graphics-symbol" aria-roledescription="point" transform="translate(44.513378528254776,104.9487534085417)" d="M-4.031128874149275,-4.031128874149275h8.06225774829855v8.06225774829855h-8.06225774829855Z" fill="rgb(61, 77, 138)" stroke="black" stroke-width="1.5" opacity="0.9"/><path aria-label="clade: 20G (B.1.2); partition: partition 1; total_count: 6984; PC2 (27% variance): −1.66726822618; PC1 (44% variance): −2.12145841753" role="graphics-symbol" aria-roledescription="point" transform="translate(36.27595518226198,249.13918604883207)" d="M4.031128874149275,0A4.031128874149275,4.031128874149275,0,1,1,-4.031128874149275,0A4.031128874149275,4.031128874149275,0,1,1,4.031128874149275,0" fill="rgb(52, 98, 141)" stroke="black" stroke-width="1.5" opacity="0.9"/><path aria-label="clade: 20G (B.1.2); partition: partition 2; total_count: 7035; PC2 (27% variance): −1.81061195678; PC1 (44% variance): 1.24862404558" role="graphics-symbol" aria-roledescription="point" transform="translate(31.895925157957038,111.64287987248484)" d="M-4.031128874149275,-4.031128874149275h8.06225774829855v8.06225774829855h-8.06225774829855Z" fill="rgb(52, 98, 141)" stroke="black" stroke-width="1.5" opacity="0.9"/><path aria-label="clade: 20I (Alpha); partition: partition 1; total_count: 29369; PC2 (27% variance): −1.27162808209; PC1 (44% variance): −2.15951538099" role="graphics-symbol" aria-roledescription="point" transform="translate(48.36518784519039,250.69187562160647)" d="M4.031128874149275,0A4.031128874149275,4.031128874149275,0,1,1,-4.031128874149275,0A4.031128874149275,4.031128874149275,0,1,1,4.031128874149275,0" fill="rgb(43, 116, 142)" stroke="black" stroke-width="1.5" opacity="0.9"/><path aria-label="clade: 20I (Alpha); partition: partition 2; total_count: 31489; PC2 (27% variance): −2.52719234083; PC1 (44% variance): 1.82066979726" role="graphics-symbol" aria-roledescription="point" transform="translate(10,88.30393233026598)" d="M-4.031128874149275,-4.031128874149275h8.06225774829855v8.06225774829855h-8.06225774829855Z" fill="rgb(43, 116, 142)" stroke="black" stroke-width="1.5" opacity="0.9"/><path aria-label="clade: 21I (Delta); partition: partition 1; total_count: 11661; PC2 (27% variance): −0.206330342003; PC1 (44% variance): −0.879127898887" role="graphics-symbol" aria-roledescription="point" transform="translate(80.91656673710014,198.45322829166784)" d="M4.031128874149275,0A4.031128874149275,4.031128874149275,0,1,1,-4.031128874149275,0A4.031128874149275,4.031128874149275,0,1,1,4.031128874149275,0" fill="rgb(36, 135, 142)" stroke="black" stroke-width="1.5" opacity="0.9"/><path aria-label="clade: 21I (Delta); partition: partition 2; total_count: 12456; PC2 (27% variance): −0.447091542073; PC1 (44% variance): 3.32681024321" role="graphics-symbol" aria-roledescription="point" transform="translate(73.55983560827767,26.854768943853724)" d="M-4.031128874149275,-4.031128874149275h8.06225774829855v8.06225774829855h-8.06225774829855Z" fill="rgb(36, 135, 142)" stroke="black" stroke-width="1.5" opacity="0.9"/><path aria-label="clade: 21J (Delta); partition: partition 1; total_count: 133486; PC2 (27% variance): 0.113273301028; PC1 (44% variance): −0.611665014553" role="graphics-symbol" aria-roledescription="point" transform="translate(90.68241799922924,187.54098533092903)" d="M4.031128874149275,0A4.031128874149275,4.031128874149275,0,1,1,-4.031128874149275,0A4.031128874149275,4.031128874149275,0,1,1,4.031128874149275,0" fill="rgb(31, 153, 139)" stroke="black" stroke-width="1.5" opacity="0.9"/><path aria-label="clade: 21J (Delta); partition: partition 2; total_count: 148565; PC2 (27% variance): 0.00100846720395; PC1 (44% variance): 3.73992651388" role="graphics-symbol" aria-roledescription="point" transform="translate(87.2520388624487,10.000000000000032)" d="M-4.031128874149275,-4.031128874149275h8.06225774829855v8.06225774829855h-8.06225774829855Z" fill="rgb(31, 153, 139)" stroke="black" stroke-width="1.5" opacity="0.9"/><path aria-label="clade: 21K (Omicron BA.1); partition: partition 1; total_count: 57856; PC2 (27% variance): 2.14032927257; PC1 (44% variance): −2.96523455526" role="graphics-symbol" aria-roledescription="point" transform="translate(152.62140883892678,283.56448674926764)" d="M4.031128874149275,0A4.031128874149275,4.031128874149275,0,1,1,-4.031128874149275,0A4.031128874149275,4.031128874149275,0,1,1,4.031128874149275,0" fill="rgb(38, 172, 130)" stroke="black" stroke-width="1.5" opacity="0.9"/><path aria-label="clade: 21K (Omicron BA.1); partition: partition 2; total_count: 55865; PC2 (27% variance): 2.25596838368; PC1 (44% variance): 1.9488367858" role="graphics-symbol" aria-roledescription="point" transform="translate(156.15489283955586,83.074835508017)" d="M-4.031128874149275,-4.031128874149275h8.06225774829855v8.06225774829855h-8.06225774829855Z" fill="rgb(38, 172, 130)" stroke="black" stroke-width="1.5" opacity="0.9"/><path aria-label="clade: 21L (Omicron BA.2); partition: partition 1; total_count: 40949; PC2 (27% variance): 0.81424757281; PC1 (44% variance): −2.49560012515" role="graphics-symbol" aria-roledescription="point" transform="translate(112.10148072287448,264.40382818976434)" d="M4.031128874149275,0A4.031128874149275,4.031128874149275,0,1,1,-4.031128874149275,0A4.031128874149275,4.031128874149275,0,1,1,4.031128874149275,0" fill="rgb(64, 189, 115)" stroke="black" stroke-width="1.5" opacity="0.9"/><path aria-label="clade: 21L (Omicron BA.2); partition: partition 2; total_count: 42526; PC2 (27% variance): 1.87102374581; PC1 (44% variance): 2.41634727716" role="graphics-symbol" aria-roledescription="point" transform="translate(144.3924734819199,64.00083172201141)" d="M-4.031128874149275,-4.031128874149275h8.06225774829855v8.06225774829855h-8.06225774829855Z" fill="rgb(64, 189, 115)" stroke="black" stroke-width="1.5" opacity="0.9"/><path aria-label="clade: 22A (Omicron BA.4); partition: partition 1; total_count: 5593; PC2 (27% variance): 1.76716498993; PC1 (44% variance): −2.58618398318" role="graphics-symbol" aria-roledescription="point" transform="translate(141.2189515766587,268.0995673930968)" d="M4.031128874149275,0A4.031128874149275,4.031128874149275,0,1,1,-4.031128874149275,0A4.031128874149275,4.031128874149275,0,1,1,4.031128874149275,0" fill="rgb(104, 204, 92)" stroke="black" stroke-width="1.5" opacity="0.9"/><path aria-label="clade: 22A (Omicron BA.4); partition: partition 2; total_count: 5820; PC2 (27% variance): 2.49752165306; PC1 (44% variance): 1.45654204378" role="graphics-symbol" aria-roledescription="point" transform="translate(163.53582654325572,103.16001422968868)" d="M-4.031128874149275,-4.031128874149275h8.06225774829855v8.06225774829855h-8.06225774829855Z" fill="rgb(104, 204, 92)" stroke="black" stroke-width="1.5" opacity="0.9"/><path aria-label="clade: 22B (Omicron BA.5); partition: partition 1; total_count: 31615; PC2 (27% variance): 1.15646427272; PC1 (44% variance): −2.63912890908" role="graphics-symbol" aria-roledescription="point" transform="translate(122.55829954701912,270.25967232277776)" d="M4.031128874149275,0A4.031128874149275,4.031128874149275,0,1,1,-4.031128874149275,0A4.031128874149275,4.031128874149275,0,1,1,4.031128874149275,0" fill="rgb(151, 217, 63)" stroke="black" stroke-width="1.5" opacity="0.9"/><path aria-label="clade: 22B (Omicron BA.5); partition: partition 2; total_count: 33150; PC2 (27% variance): 2.98458301271; PC1 (44% variance): 2.06129512659" role="graphics-symbol" aria-roledescription="point" transform="translate(178.41853798157635,78.48663725868094)" d="M-4.031128874149275,-4.031128874149275h8.06225774829855v8.06225774829855h-8.06225774829855Z" fill="rgb(151, 217, 63)" stroke="black" stroke-width="1.5" opacity="0.9"/><path aria-label="clade: 22C (Omicron BA.2.12.1); partition: partition 1; total_count: 9355; PC2 (27% variance): 1.1452866137; PC1 (44% variance): −3.12297123162" role="graphics-symbol" aria-roledescription="point" transform="translate(122.21675351711689,290)" d="M4.031128874149275,0A4.031128874149275,4.031128874149275,0,1,1,-4.031128874149275,0A4.031128874149275,4.031128874149275,0,1,1,4.031128874149275,0" fill="rgb(203, 225, 31)" stroke="black" stroke-width="1.5" opacity="0.9"/><path aria-label="clade: 22C (Omicron BA.2.12.1); partition: partition 2; total_count: 9603; PC2 (27% variance): 2.66860608035; PC1 (44% variance): 1.48240769218" role="graphics-symbol" aria-roledescription="point" transform="translate(168.763504971116,102.10471924797245)" d="M-4.031128874149275,-4.031128874149275h8.06225774829855v8.06225774829855h-8.06225774829855Z" fill="rgb(203, 225, 31)" stroke="black" stroke-width="1.5" opacity="0.9"/></g><g class="mark-group role-legend" role="graphics-symbol" aria-roledescription="legend" aria-label="Symbol legend titled 'clade' for fill color with 12 values: 20A (B.1), 20B (B.1.1), 20E (B.1.177), 20G (B.1.2), 20I (Alpha), ending with 22C (Omicron BA.2.12.1)"><g transform="translate(207,0)"><path class="background" aria-hidden="true" d="M0,0h129v205h-129Z" pointer-events="none"/><g><g class="mark-group role-legend-entry"><g transform="translate(0,16)"><path class="background" aria-hidden="true" d="M0,0h0v0h0Z" pointer-events="none"/><g><g class="mark-group role-scope clade_legend_entries" role="graphics-object" aria-roledescription="group mark container"><g transform="translate(0,0)"><path class="background" aria-hidden="true" d="M0,0h128.265625v12.5h-128.265625Z" opacity="1"/><g><g class="mark-symbol role-legend-symbol clade_legend_symbols"><path transform="translate(6,6)" d="M5,0A5,5,0,1,1,-5,0A5,5,0,1,1,5,0" fill="rgb(72, 29, 111)" stroke="black" stroke-width="1.5" opacity="0.9"/></g><g class="mark-text role-legend-label clade_legend_labels"><text text-anchor="start" transform="translate(16,9)" font-family="sans-serif" font-size="10px" fill="#000" opacity="1">20A (B.1)</text></g></g><path class="foreground" aria-hidden="true" d="" display="none"/></g><g transform="translate(0,16)"><path class="background" aria-hidden="true" d="M0,0h128.265625v12.5h-128.265625Z" opacity="1"/><g><g class="mark-symbol role-legend-symbol clade_legend_symbols"><path transform="translate(6,6)" d="M5,0A5,5,0,1,1,-5,0A5,5,0,1,1,5,0" fill="rgb(69, 54, 129)" stroke="black" stroke-width="1.5" opacity="0.9"/></g><g class="mark-text role-legend-label clade_legend_labels"><text text-anchor="start" transform="translate(16,9)" font-family="sans-serif" font-size="10px" fill="#000" opacity="1">20B (B.1.1)</text></g></g><path class="foreground" aria-hidden="true" d="" display="none"/></g><g transform="translate(0,32)"><path class="background" aria-hidden="true" d="M0,0h128.265625v12.5h-128.265625Z" opacity="1"/><g><g class="mark-symbol role-legend-symbol clade_legend_symbols"><path transform="translate(6,6)" d="M5,0A5,5,0,1,1,-5,0A5,5,0,1,1,5,0" fill="rgb(61, 77, 138)" stroke="black" stroke-width="1.5" opacity="0.9"/></g><g class="mark-text role-legend-label clade_legend_labels"><text text-anchor="start" transform="translate(16,9)" font-family="sans-serif" font-size="10px" fill="#000" opacity="1">20E (B.1.177)</text></g></g><path class="foreground" aria-hidden="true" d="" display="none"/></g><g transform="translate(0,48)"><path class="background" aria-hidden="true" d="M0,0h128.265625v12.5h-128.265625Z" opacity="1"/><g><g class="mark-symbol role-legend-symbol clade_legend_symbols"><path transform="translate(6,6)" d="M5,0A5,5,0,1,1,-5,0A5,5,0,1,1,5,0" fill="rgb(52, 98, 141)" stroke="black" stroke-width="1.5" opacity="0.9"/></g><g class="mark-text role-legend-label clade_legend_labels"><text text-anchor="start" transform="translate(16,9)" font-family="sans-serif" font-size="10px" fill="#000" opacity="1">20G (B.1.2)</text></g></g><path class="foreground" aria-hidden="true" d="" display="none"/></g><g transform="translate(0,64)"><path class="background" aria-hidden="true" d="M0,0h128.265625v12.5h-128.265625Z" opacity="1"/><g><g class="mark-symbol role-legend-symbol clade_legend_symbols"><path transform="translate(6,6)" d="M5,0A5,5,0,1,1,-5,0A5,5,0,1,1,5,0" fill="rgb(43, 116, 142)" stroke="black" stroke-width="1.5" opacity="0.9"/></g><g class="mark-text role-legend-label clade_legend_labels"><text text-anchor="start" transform="translate(16,9)" font-family="sans-serif" font-size="10px" fill="#000" opacity="1">20I (Alpha)</text></g></g><path class="foreground" aria-hidden="true" d="" display="none"/></g><g transform="translate(0,80)"><path class="background" aria-hidden="true" d="M0,0h128.265625v12.5h-128.265625Z" opacity="1"/><g><g class="mark-symbol role-legend-symbol clade_legend_symbols"><path transform="translate(6,6)" d="M5,0A5,5,0,1,1,-5,0A5,5,0,1,1,5,0" fill="rgb(36, 135, 142)" stroke="black" stroke-width="1.5" opacity="0.9"/></g><g class="mark-text role-legend-label clade_legend_labels"><text text-anchor="start" transform="translate(16,9)" font-family="sans-serif" font-size="10px" fill="#000" opacity="1">21I (Delta)</text></g></g><path class="foreground" aria-hidden="true" d="" display="none"/></g><g transform="translate(0,96)"><path class="background" aria-hidden="true" d="M0,0h128.265625v12.5h-128.265625Z" opacity="1"/><g><g class="mark-symbol role-legend-symbol clade_legend_symbols"><path transform="translate(6,6)" d="M5,0A5,5,0,1,1,-5,0A5,5,0,1,1,5,0" fill="rgb(31, 153, 139)" stroke="black" stroke-width="1.5" opacity="0.9"/></g><g class="mark-text role-legend-label clade_legend_labels"><text text-anchor="start" transform="translate(16,9)" font-family="sans-serif" font-size="10px" fill="#000" opacity="1">21J (Delta)</text></g></g><path class="foreground" aria-hidden="true" d="" display="none"/></g><g transform="translate(0,112)"><path class="background" aria-hidden="true" d="M0,0h128.265625v12.5h-128.265625Z" opacity="1"/><g><g class="mark-symbol role-legend-symbol clade_legend_symbols"><path transform="translate(6,6)" d="M5,0A5,5,0,1,1,-5,0A5,5,0,1,1,5,0" fill="rgb(38, 172, 130)" stroke="black" stroke-width="1.5" opacity="0.9"/></g><g class="mark-text role-legend-label clade_legend_labels"><text text-anchor="start" transform="translate(16,9)" font-family="sans-serif" font-size="10px" fill="#000" opacity="1">21K (Omicron BA.1)</text></g></g><path class="foreground" aria-hidden="true" d="" display="none"/></g><g transform="translate(0,128)"><path class="background" aria-hidden="true" d="M0,0h128.265625v12.5h-128.265625Z" opacity="1"/><g><g class="mark-symbol role-legend-symbol clade_legend_symbols"><path transform="translate(6,6)" d="M5,0A5,5,0,1,1,-5,0A5,5,0,1,1,5,0" fill="rgb(64, 189, 115)" stroke="black" stroke-width="1.5" opacity="0.9"/></g><g class="mark-text role-legend-label clade_legend_labels"><text text-anchor="start" transform="translate(16,9)" font-family="sans-serif" font-size="10px" fill="#000" opacity="1">21L (Omicron BA.2)</text></g></g><path class="foreground" aria-hidden="true" d="" display="none"/></g><g transform="translate(0,144)"><path class="background" aria-hidden="true" d="M0,0h128.265625v12.5h-128.265625Z" opacity="1"/><g><g class="mark-symbol role-legend-symbol clade_legend_symbols"><path transform="translate(6,6)" d="M5,0A5,5,0,1,1,-5,0A5,5,0,1,1,5,0" fill="rgb(104, 204, 92)" stroke="black" stroke-width="1.5" opacity="0.9"/></g><g class="mark-text role-legend-label clade_legend_labels"><text text-anchor="start" transform="translate(16,9)" font-family="sans-serif" font-size="10px" fill="#000" opacity="1">22A (Omicron BA.4)</text></g></g><path class="foreground" aria-hidden="true" d="" display="none"/></g><g transform="translate(0,160)"><path class="background" aria-hidden="true" d="M0,0h128.265625v12.5h-128.265625Z" opacity="1"/><g><g class="mark-symbol role-legend-symbol clade_legend_symbols"><path transform="translate(6,6)" d="M5,0A5,5,0,1,1,-5,0A5,5,0,1,1,5,0" fill="rgb(151, 217, 63)" stroke="black" stroke-width="1.5" opacity="0.9"/></g><g class="mark-text role-legend-label clade_legend_labels"><text text-anchor="start" transform="translate(16,9)" font-family="sans-serif" font-size="10px" fill="#000" opacity="1">22B (Omicron BA.5)</text></g></g><path class="foreground" aria-hidden="true" d="" display="none"/></g><g transform="translate(0,176)"><path class="background" aria-hidden="true" d="M0,0h128.265625v12.5h-128.265625Z" opacity="1"/><g><g class="mark-symbol role-legend-symbol clade_legend_symbols"><path transform="translate(6,6)" d="M5,0A5,5,0,1,1,-5,0A5,5,0,1,1,5,0" fill="rgb(203, 225, 31)" stroke="black" stroke-width="1.5" opacity="0.9"/></g><g class="mark-text role-legend-label clade_legend_labels"><text text-anchor="start" transform="translate(16,9)" font-family="sans-serif" font-size="10px" fill="#000" opacity="1">22C (Omicron BA.2.12.1)</text></g></g><path class="foreground" aria-hidden="true" d="" display="none"/></g></g></g><path class="foreground" aria-hidden="true" d="" pointer-events="none" display="none"/></g></g><g class="mark-text role-legend-title" pointer-events="none"><text text-anchor="start" transform="translate(0,9)" font-family="sans-serif" font-size="11px" font-weight="bold" fill="#000" opacity="1">clade</text></g></g><path class="foreground" aria-hidden="true" d="" pointer-events="none" display="none"/></g></g><g class="mark-group role-legend" role="graphics-symbol" aria-roledescription="legend" aria-label="Symbol legend titled 'partition' for shape with 2 values: partition 1, partition 2"><g transform="translate(207,213)"><path class="background" aria-hidden="true" d="M0,0h60v45h-60Z" pointer-events="none"/><g><g class="mark-group role-legend-entry"><g transform="translate(0,16)"><path class="background" aria-hidden="true" d="M0,0h0v0h0Z" pointer-events="none"/><g><g class="mark-group role-scope partition_legend_entries" role="graphics-object" aria-roledescription="group mark container"><g transform="translate(0,0)"><path class="background" aria-hidden="true" d="M0,0h59.916015625v12.5h-59.916015625Z" opacity="1"/><g><g class="mark-symbol role-legend-symbol partition_legend_symbols"><path transform="translate(6,6)" d="M5,0A5,5,0,1,1,-5,0A5,5,0,1,1,5,0" fill="black" fill-opacity="0.9" stroke="black" stroke-width="1.5" opacity="0.9"/></g><g class="mark-text role-legend-label partition_legend_labels"><text text-anchor="start" transform="translate(16,9)" font-family="sans-serif" font-size="10px" fill="#000" opacity="1">partition 1</text></g></g><path class="foreground" aria-hidden="true" d="" display="none"/></g><g transform="translate(0,16)"><path class="background" aria-hidden="true" d="M0,0h59.916015625v12.5h-59.916015625Z" opacity="1"/><g><g class="mark-symbol role-legend-symbol partition_legend_symbols"><path transform="translate(6,6)" d="M-5,-5h10v10h-10Z" fill="black" fill-opacity="0.9" stroke="black" stroke-width="1.5" opacity="0.9"/></g><g class="mark-text role-legend-label partition_legend_labels"><text text-anchor="start" transform="translate(16,9)" font-family="sans-serif" font-size="10px" fill="#000" opacity="1">partition 2</text></g></g><path class="foreground" aria-hidden="true" d="" display="none"/></g></g></g><path class="foreground" aria-hidden="true" d="" pointer-events="none" display="none"/></g></g><g class="mark-text role-legend-title" pointer-events="none"><text text-anchor="start" transform="translate(0,9)" font-family="sans-serif" font-size="11px" font-weight="bold" fill="#000" opacity="1">partition</text></g></g><path class="foreground" aria-hidden="true" d="" pointer-events="none" display="none"/></g></g><g class="mark-group role-title"><g transform="translate(94.20926899078817,-17)"><path class="background" aria-hidden="true" d="M0,0h0v0h0Z" pointer-events="none"/><g><g class="mark-text role-title-text" role="graphics-symbol" aria-roledescription="title" aria-label="Title text 'all samples, partitioned genome'" pointer-events="none"><text text-anchor="middle" transform="translate(0,10)" font-family="sans-serif" font-size="13px" font-weight="bold" fill="#000" opacity="1">all samples, partitioned genome</text></g></g><path class="foreground" aria-hidden="true" d="" pointer-events="none" display="none"/></g></g></g><path class="foreground" aria-hidden="true" d="" display="none"/></g></g></g></svg>