<svg xmlns="http://www.w3.org/2000/svg" xmlns:xlink="http://www.w3.org/1999/xlink" version="1.1" class="marks" width="364.6835611632508" height="342" viewBox="0 0 364.6835611632508 342"><rect width="364.6835611632508" height="342" fill="white"/><g fill="none" stroke-miterlimit="10" transform="translate(20,22)"><g class="mark-group role-frame root" role="graphics-object" aria-roledescription="group mark container"><g transform="translate(0,0)"><path class="background" aria-hidden="true" d="M0.5,0.5h191.68356116325077v300h-191.68356116325077Z" stroke="#ddd"/><g><g class="mark-group role-axis" role="graphics-symbol" aria-roledescription="axis" aria-label="X-axis titled 'PC2 (23% variance)' for a linear scale with values from −3 to 4"><g transform="translate(0.5,300.5)"><path class="background" aria-hidden="true" d="M0,0h0v0h0Z" pointer-events="none"/><g><g class="mark-rule role-axis-domain" pointer-events="none"><line transform="translate(0,0)" x2="191.68356116325077" y2="0" stroke="#888" stroke-width="1" opacity="1"/></g><g class="mark-text role-axis-title" pointer-events="none"><text text-anchor="middle" transform="translate(95.84178058162539,13)" font-family="sans-serif" font-size="11px" font-weight="bold" fill="#000" opacity="1">PC2 (23% variance)</text></g></g><path class="foreground" aria-hidden="true" d="" pointer-events="none" display="none"/></g></g><g class="mark-group role-axis" role="graphics-symbol" aria-roledescription="axis" aria-label="Y-axis titled 'PC1 (37% variance)' for a linear scale with values from −3 to 3"><g transform="translate(0.5,0.5)"><path class="background" aria-hidden="true" d="M0,0h0v0h0Z" pointer-events="none"/><g><g class="mark-rule role-axis-domain" pointer-events="none"><line transform="translate(0,300)" x2="0" y2="-300" stroke="#888" stroke-width="1" opacity="1"/></g><g class="mark-text role-axis-title" pointer-events="none"><text text-anchor="middle" transform="translate(-4,150) rotate(-90) translate(0,-2)" font-family="sans-serif" font-size="11px" font-weight="bold" fill="#000" opacity="1">PC1 (37% variance)</text></g></g><path class="foreground" aria-hidden="true" d="" pointer-events="none" display="none"/></g></g><g class="mark-symbol role-mark marks" role="graphics-object" aria-roledescription="symbol mark container"><path aria-label="clade: 20A (B.1); subset: USA; total_count: 8439; PC2 (23% variance): −0.106790775662; PC1 (37% variance): 2.5342732739" role="graphics-symbol" aria-roledescription="point" transform="translate(68.78426904277791,38.772086364002625)" d="M-4.031128874149275,-4.031128874149275h8.06225774829855v8.06225774829855h-8.06225774829855Z" fill="rgb(72, 26, 108)" stroke="black" stroke-width="1.5" opacity="0.9"/><path aria-label="clade: 20A (B.1); subset: all; total_count: 17202; PC2 (23% variance): 2.26193499865; PC1 (37% variance): 2.10156635503" role="graphics-symbol" aria-roledescription="point" transform="translate(134.9621263481934,58.79323178561221)" d="M4.031128874149275,0A4.031128874149275,4.031128874149275,0,1,1,-4.031128874149275,0A4.031128874149275,4.031128874149275,0,1,1,4.031128874149275,0" fill="rgb(72, 26, 108)" stroke="black" stroke-width="1.5" opacity="0.9"/><path aria-label="clade: 20B (B.1.1); subset: USA; total_count: 6129; PC2 (23% variance): −1.51629196954; PC1 (37% variance): 2.72404047545" role="graphics-symbol" aria-roledescription="point" transform="translate(29.40538867943247,29.991647289098523)" d="M-4.031128874149275,-4.031128874149275h8.06225774829855v8.06225774829855h-8.06225774829855Z" fill="rgb(71, 47, 125)" stroke="black" stroke-width="1.5" opacity="0.9"/><path aria-label="clade: 20B (B.1.1); subset: all; total_count: 14121; PC2 (23% variance): 0.0201963529234; PC1 (37% variance): 2.73941480617" role="graphics-symbol" aria-roledescription="point" transform="translate(72.33205670408658,29.280284244875045)" d="M4.031128874149275,0A4.031128874149275,4.031128874149275,0,1,1,-4.031128874149275,0A4.031128874149275,4.031128874149275,0,1,1,4.031128874149275,0" fill="rgb(71, 47, 125)" stroke="black" stroke-width="1.5" opacity="0.9"/><path aria-label="clade: 20C (B.1.367); subset: USA; total_count: 8516; PC2 (23% variance): 0.557208045135; PC1 (37% variance): 1.21159688678" role="graphics-symbol" aria-roledescription="point" transform="translate(87.33517927904079,99.97170009189747)" d="M-4.031128874149275,-4.031128874149275h8.06225774829855v8.06225774829855h-8.06225774829855Z" fill="rgb(65, 68, 135)" stroke="black" stroke-width="1.5" opacity="0.9"/><path aria-label="clade: 20C (B.1.367); subset: all; total_count: 9344; PC2 (23% variance): 0.824673298819; PC1 (37% variance): 1.23125160491" role="graphics-symbol" aria-roledescription="point" transform="translate(94.80766832120798,99.0622855372474)" d="M4.031128874149275,0A4.031128874149275,4.031128874149275,0,1,1,-4.031128874149275,0A4.031128874149275,4.031128874149275,0,1,1,4.031128874149275,0" fill="rgb(65, 68, 135)" stroke="black" stroke-width="1.5" opacity="0.9"/><path aria-label="clade: 20E (B.1.177); subset: England; total_count: 6287; PC2 (23% variance): −1.12425740959; PC1 (37% variance): 2.4549952981" role="graphics-symbol" aria-roledescription="point" transform="translate(40.3581158582487,42.440240980918475)" d="M0,-3.4910600109422347L-4.031128874149275,3.4910600109422347L4.031128874149275,3.4910600109422347Z" fill="rgb(57, 86, 140)" stroke="black" stroke-width="1.5" opacity="0.9"/><path aria-label="clade: 20E (B.1.177); subset: all; total_count: 10454; PC2 (23% variance): −0.394454931701; PC1 (37% variance): 1.78264023204" role="graphics-symbol" aria-roledescription="point" transform="translate(60.74745968447144,73.54979334901867)" d="M4.031128874149275,0A4.031128874149275,4.031128874149275,0,1,1,-4.031128874149275,0A4.031128874149275,4.031128874149275,0,1,1,4.031128874149275,0" fill="rgb(57, 86, 140)" stroke="black" stroke-width="1.5" opacity="0.9"/><path aria-label="clade: 20G (B.1.2); subset: USA; total_count: 13950; PC2 (23% variance): −1.01673461037; PC1 (37% variance): 1.93575731255" role="graphics-symbol" aria-roledescription="point" transform="translate(43.36210582638905,66.46513811991954)" d="M-4.031128874149275,-4.031128874149275h8.06225774829855v8.06225774829855h-8.06225774829855Z" fill="rgb(49, 104, 142)" stroke="black" stroke-width="1.5" opacity="0.9"/><path aria-label="clade: 20G (B.1.2); subset: all; total_count: 14019; PC2 (23% variance): −1.04439439414; PC1 (37% variance): 1.92061367795" role="graphics-symbol" aria-roledescription="point" transform="translate(42.58934215609338,67.16582696343619)" d="M4.031128874149275,0A4.031128874149275,4.031128874149275,0,1,1,-4.031128874149275,0A4.031128874149275,4.031128874149275,0,1,1,4.031128874149275,0" fill="rgb(49, 104, 142)" stroke="black" stroke-width="1.5" opacity="0.9"/><path aria-label="clade: 20I (Alpha); subset: England; total_count: 19559; PC2 (23% variance): −1.44056265065; PC1 (37% variance): 1.43744714951" role="graphics-symbol" aria-roledescription="point" transform="translate(31.521127070750676,89.52171476362486)" d="M0,-3.4910600109422347L-4.031128874149275,3.4910600109422347L4.031128874149275,3.4910600109422347Z" fill="rgb(42, 120, 142)" stroke="black" stroke-width="1.5" opacity="0.9"/><path aria-label="clade: 20I (Alpha); subset: USA; total_count: 21919; PC2 (23% variance): −1.77454031909; PC1 (37% variance): 3.15610986606" role="graphics-symbol" aria-roledescription="point" transform="translate(22.190403048243443,9.999999999999998)" d="M-4.031128874149275,-4.031128874149275h8.06225774829855v8.06225774829855h-8.06225774829855Z" fill="rgb(42, 120, 142)" stroke="black" stroke-width="1.5" opacity="0.9"/><path aria-label="clade: 20I (Alpha); subset: all; total_count: 60858; PC2 (23% variance): −0.127348974404; PC1 (37% variance): 2.27580287899" role="graphics-symbol" aria-roledescription="point" transform="translate(68.20991064403837,50.73138985131818)" d="M4.031128874149275,0A4.031128874149275,4.031128874149275,0,1,1,-4.031128874149275,0A4.031128874149275,4.031128874149275,0,1,1,4.031128874149275,0" fill="rgb(42, 120, 142)" stroke="black" stroke-width="1.5" opacity="0.9"/><path aria-label="clade: 21C (Epsilon); subset: USA; total_count: 6276; PC2 (23% variance): −0.739159485057; PC1 (37% variance): 2.20143858041" role="graphics-symbol" aria-roledescription="point" transform="translate(51.11704615503941,54.172190936272266)" d="M-4.031128874149275,-4.031128874149275h8.06225774829855v8.06225774829855h-8.06225774829855Z" fill="rgb(35, 136, 142)" stroke="black" stroke-width="1.5" opacity="0.9"/><path aria-label="clade: 21C (Epsilon); subset: all; total_count: 6308; PC2 (23% variance): −0.788719376286; PC1 (37% variance): 2.24616112202" role="graphics-symbol" aria-roledescription="point" transform="translate(49.73243361551402,52.10289999096136)" d="M4.031128874149275,0A4.031128874149275,4.031128874149275,0,1,1,-4.031128874149275,0A4.031128874149275,4.031128874149275,0,1,1,4.031128874149275,0" fill="rgb(35, 136, 142)" stroke="black" stroke-width="1.5" opacity="0.9"/><path aria-label="clade: 21I (Delta); subset: USA; total_count: 17419; PC2 (23% variance): 3.09044266162; PC1 (37% variance): −0.598722172798" role="graphics-symbol" aria-roledescription="point" transform="translate(158.1091121624793,183.73431069642044)" d="M-4.031128874149275,-4.031128874149275h8.06225774829855v8.06225774829855h-8.06225774829855Z" fill="rgb(31, 152, 139)" stroke="black" stroke-width="1.5" opacity="0.9"/><path aria-label="clade: 21I (Delta); subset: all; total_count: 24117; PC2 (23% variance): 3.62903180788; PC1 (37% variance): −0.101627413244" role="graphics-symbol" aria-roledescription="point" transform="translate(173.15630591277545,160.73397019964966)" d="M4.031128874149275,0A4.031128874149275,4.031128874149275,0,1,1,-4.031128874149275,0A4.031128874149275,4.031128874149275,0,1,1,4.031128874149275,0" fill="rgb(31, 152, 139)" stroke="black" stroke-width="1.5" opacity="0.9"/><path aria-label="clade: 21J (Delta); subset: England; total_count: 80893; PC2 (23% variance): 3.08788814406; PC1 (37% variance): 0.0255584616246" role="graphics-symbol" aria-roledescription="point" transform="translate(158.03774362316332,154.84913964747784)" d="M0,-3.4910600109422347L-4.031128874149275,3.4910600109422347L4.031128874149275,3.4910600109422347Z" fill="rgb(34, 168, 132)" stroke="black" stroke-width="1.5" opacity="0.9"/><path aria-label="clade: 21J (Delta); subset: USA; total_count: 138653; PC2 (23% variance): 3.25082142234; PC1 (37% variance): −1.37815210328" role="graphics-symbol" aria-roledescription="point" transform="translate(162.5898008337112,219.79816663109605)" d="M-4.031128874149275,-4.031128874149275h8.06225774829855v8.06225774829855h-8.06225774829855Z" fill="rgb(34, 168, 132)" stroke="black" stroke-width="1.5" opacity="0.9"/><path aria-label="clade: 21J (Delta); subset: all; total_count: 282051; PC2 (23% variance): 3.93425065476; PC1 (37% variance): −0.558912083063" role="graphics-symbol" aria-roledescription="point" transform="translate(181.68356116325077,181.89231658663502)" d="M4.031128874149275,0A4.031128874149275,4.031128874149275,0,1,1,-4.031128874149275,0A4.031128874149275,4.031128874149275,0,1,1,4.031128874149275,0" fill="rgb(34, 168, 132)" stroke="black" stroke-width="1.5" opacity="0.9"/><path aria-label="clade: 21K (Omicron BA.1); subset: England; total_count: 36511; PC2 (23% variance): −1.53334158809; PC1 (37% variance): −2.86166149606" role="graphics-symbol" aria-roledescription="point" transform="translate(28.929053581512,288.4394478119537)" d="M0,-3.4910600109422347L-4.031128874149275,3.4910600109422347L4.031128874149275,3.4910600109422347Z" fill="rgb(53, 183, 121)" stroke="black" stroke-width="1.5" opacity="0.9"/><path aria-label="clade: 21K (Omicron BA.1); subset: USA; total_count: 51666; PC2 (23% variance): −0.202196197546; PC1 (37% variance): −2.89538892348" role="graphics-symbol" aria-roledescription="point" transform="translate(66.11881639137037,290)" d="M-4.031128874149275,-4.031128874149275h8.06225774829855v8.06225774829855h-8.06225774829855Z" fill="rgb(53, 183, 121)" stroke="black" stroke-width="1.5" opacity="0.9"/><path aria-label="clade: 21K (Omicron BA.1); subset: all; total_count: 113721; PC2 (23% variance): 0.0354439349858; PC1 (37% variance): −2.81041780129" role="graphics-symbol" aria-roledescription="point" transform="translate(72.75804620482175,286.06842618009165)" d="M4.031128874149275,0A4.031128874149275,4.031128874149275,0,1,1,-4.031128874149275,0A4.031128874149275,4.031128874149275,0,1,1,4.031128874149275,0" fill="rgb(53, 183, 121)" stroke="black" stroke-width="1.5" opacity="0.9"/><path aria-label="clade: 21L (Omicron BA.2); subset: England; total_count: 27649; PC2 (23% variance): −0.487851061024; PC1 (37% variance): −1.24415162588" role="graphics-symbol" aria-roledescription="point" transform="translate(58.1381429850854,213.59802762828656)" d="M0,-3.4910600109422347L-4.031128874149275,3.4910600109422347L4.031128874149275,3.4910600109422347Z" fill="rgb(84, 197, 104)" stroke="black" stroke-width="1.5" opacity="0.9"/><path aria-label="clade: 21L (Omicron BA.2); subset: USA; total_count: 21464; PC2 (23% variance): −0.475229571693; PC1 (37% variance): −1.67452467876" role="graphics-symbol" aria-roledescription="point" transform="translate(58.49076426737157,233.5111861690765)" d="M-4.031128874149275,-4.031128874149275h8.06225774829855v8.06225774829855h-8.06225774829855Z" fill="rgb(84, 197, 104)" stroke="black" stroke-width="1.5" opacity="0.9"/><path aria-label="clade: 21L (Omicron BA.2); subset: all; total_count: 83475; PC2 (23% variance): 0.670836185785; PC1 (37% variance): −1.75089329069" role="graphics-symbol" aria-roledescription="point" transform="translate(90.50974129857465,237.04472588946118)" d="M4.031128874149275,0A4.031128874149275,4.031128874149275,0,1,1,-4.031128874149275,0A4.031128874149275,4.031128874149275,0,1,1,4.031128874149275,0" fill="rgb(84, 197, 104)" stroke="black" stroke-width="1.5" opacity="0.9"/><path aria-label="clade: 22A (Omicron BA.4); subset: USA; total_count: 8521; PC2 (23% variance): −2.2108754178; PC1 (37% variance): −2.54293623256" role="graphics-symbol" aria-roledescription="point" transform="translate(10.000000000000002,273.69217992304254)" d="M-4.031128874149275,-4.031128874149275h8.06225774829855v8.06225774829855h-8.06225774829855Z" fill="rgb(122, 209, 81)" stroke="black" stroke-width="1.5" opacity="0.9"/><path aria-label="clade: 22A (Omicron BA.4); subset: all; total_count: 11413; PC2 (23% variance): −1.89509565476; PC1 (37% variance): −2.49220248164" role="graphics-symbol" aria-roledescription="point" transform="translate(18.822307894362808,271.3447531529441)" d="M4.031128874149275,0A4.031128874149275,4.031128874149275,0,1,1,-4.031128874149275,0A4.031128874149275,4.031128874149275,0,1,1,4.031128874149275,0" fill="rgb(122, 209, 81)" stroke="black" stroke-width="1.5" opacity="0.9"/><path aria-label="clade: 22B (Omicron BA.5); subset: England; total_count: 13152; PC2 (23% variance): −0.628430994961; PC1 (37% variance): −1.67759494499" role="graphics-symbol" aria-roledescription="point" transform="translate(54.21059725186145,233.65324594204446)" d="M0,-3.4910600109422347L-4.031128874149275,3.4910600109422347L4.031128874149275,3.4910600109422347Z" fill="rgb(165, 219, 54)" stroke="black" stroke-width="1.5" opacity="0.9"/><path aria-label="clade: 22B (Omicron BA.5); subset: USA; total_count: 44110; PC2 (23% variance): −1.01285538587; PC1 (37% variance): −2.78239261888" role="graphics-symbol" aria-roledescription="point" transform="translate(43.47048425001617,284.77171418402713)" d="M-4.031128874149275,-4.031128874149275h8.06225774829855v8.06225774829855h-8.06225774829855Z" fill="rgb(165, 219, 54)" stroke="black" stroke-width="1.5" opacity="0.9"/><path aria-label="clade: 22B (Omicron BA.5); subset: all; total_count: 64765; PC2 (23% variance): −0.820337308425; PC1 (37% variance): −2.548821868" role="graphics-symbol" aria-roledescription="point" transform="translate(48.849086533248155,273.96450550397657)" d="M4.031128874149275,0A4.031128874149275,4.031128874149275,0,1,1,-4.031128874149275,0A4.031128874149275,4.031128874149275,0,1,1,4.031128874149275,0" fill="rgb(165, 219, 54)" stroke="black" stroke-width="1.5" opacity="0.9"/><path aria-label="clade: 22C (Omicron BA.2.12.1); subset: USA; total_count: 18167; PC2 (23% variance): −0.978972004456; PC1 (37% variance): −2.02476589281" role="graphics-symbol" aria-roledescription="point" transform="translate(44.41712383352883,249.71668225244565)" d="M-4.031128874149275,-4.031128874149275h8.06225774829855v8.06225774829855h-8.06225774829855Z" fill="rgb(210, 226, 27)" stroke="black" stroke-width="1.5" opacity="0.9"/><path aria-label="clade: 22C (Omicron BA.2.12.1); subset: all; total_count: 18958; PC2 (23% variance): −1.04428742583; PC1 (37% variance): −2.03550235406" role="graphics-symbol" aria-roledescription="point" transform="translate(42.5923306548183,250.21345326018707)" d="M4.031128874149275,0A4.031128874149275,4.031128874149275,0,1,1,-4.031128874149275,0A4.031128874149275,4.031128874149275,0,1,1,4.031128874149275,0" fill="rgb(210, 226, 27)" stroke="black" stroke-width="1.5" opacity="0.9"/></g><g class="mark-group role-legend" role="graphics-symbol" aria-roledescription="legend" aria-label="Symbol legend titled 'clade' for fill color with 14 values: 20A (B.1), 20B (B.1.1), 20C (B.1.367), 20E (B.1.177), 20G (B.1.2), ending with 22C (Omicron BA.2.12.1)"><g transform="translate(210,0)"><path class="background" aria-hidden="true" d="M0,0h129v237h-129Z" pointer-events="none"/><g><g class="mark-group role-legend-entry"><g transform="translate(0,16)"><path class="background" aria-hidden="true" d="M0,0h0v0h0Z" pointer-events="none"/><g><g class="mark-group role-scope clade_legend_entries" role="graphics-object" aria-roledescription="group mark container"><g transform="translate(0,0)"><path class="background" aria-hidden="true" d="M0,0h128.265625v12.5h-128.265625Z" opacity="1"/><g><g class="mark-symbol role-legend-symbol clade_legend_symbols"><path transform="translate(6,6)" d="M5,0A5,5,0,1,1,-5,0A5,5,0,1,1,5,0" fill="rgb(72, 26, 108)" stroke="black" stroke-width="1.5" opacity="0.9"/></g><g class="mark-text role-legend-label clade_legend_labels"><text text-anchor="start" transform="translate(16,9)" font-family="sans-serif" font-size="10px" fill="#000" opacity="1">20A (B.1)</text></g></g><path class="foreground" aria-hidden="true" d="" display="none"/></g><g transform="translate(0,16)"><path class="background" aria-hidden="true" d="M0,0h128.265625v12.5h-128.265625Z" opacity="1"/><g><g class="mark-symbol role-legend-symbol clade_legend_symbols"><path transform="translate(6,6)" d="M5,0A5,5,0,1,1,-5,0A5,5,0,1,1,5,0" fill="rgb(71, 47, 125)" stroke="black" stroke-width="1.5" opacity="0.9"/></g><g class="mark-text role-legend-label clade_legend_labels"><text text-anchor="start" transform="translate(16,9)" font-family="sans-serif" font-size="10px" fill="#000" opacity="1">20B (B.1.1)</text></g></g><path class="foreground" aria-hidden="true" d="" display="none"/></g><g transform="translate(0,32)"><path class="background" aria-hidden="true" d="M0,0h128.265625v12.5h-128.265625Z" opacity="1"/><g><g class="mark-symbol role-legend-symbol clade_legend_symbols"><path transform="translate(6,6)" d="M5,0A5,5,0,1,1,-5,0A5,5,0,1,1,5,0" fill="rgb(65, 68, 135)" stroke="black" stroke-width="1.5" opacity="0.9"/></g><g class="mark-text role-legend-label clade_legend_labels"><text text-anchor="start" transform="translate(16,9)" font-family="sans-serif" font-size="10px" fill="#000" opacity="1">20C (B.1.367)</text></g></g><path class="foreground" aria-hidden="true" d="" display="none"/></g><g transform="translate(0,48)"><path class="background" aria-hidden="true" d="M0,0h128.265625v12.5h-128.265625Z" opacity="1"/><g><g class="mark-symbol role-legend-symbol clade_legend_symbols"><path transform="translate(6,6)" d="M5,0A5,5,0,1,1,-5,0A5,5,0,1,1,5,0" fill="rgb(57, 86, 140)" stroke="black" stroke-width="1.5" opacity="0.9"/></g><g class="mark-text role-legend-label clade_legend_labels"><text text-anchor="start" transform="translate(16,9)" font-family="sans-serif" font-size="10px" fill="#000" opacity="1">20E (B.1.177)</text></g></g><path class="foreground" aria-hidden="true" d="" display="none"/></g><g transform="translate(0,64)"><path class="background" aria-hidden="true" d="M0,0h128.265625v12.5h-128.265625Z" opacity="1"/><g><g class="mark-symbol role-legend-symbol clade_legend_symbols"><path transform="translate(6,6)" d="M5,0A5,5,0,1,1,-5,0A5,5,0,1,1,5,0" fill="rgb(49, 104, 142)" stroke="black" stroke-width="1.5" opacity="0.9"/></g><g class="mark-text role-legend-label clade_legend_labels"><text text-anchor="start" transform="translate(16,9)" font-family="sans-serif" font-size="10px" fill="#000" opacity="1">20G (B.1.2)</text></g></g><path class="foreground" aria-hidden="true" d="" display="none"/></g><g transform="translate(0,80)"><path class="background" aria-hidden="true" d="M0,0h128.265625v12.5h-128.265625Z" opacity="1"/><g><g class="mark-symbol role-legend-symbol clade_legend_symbols"><path transform="translate(6,6)" d="M5,0A5,5,0,1,1,-5,0A5,5,0,1,1,5,0" fill="rgb(42, 120, 142)" stroke="black" stroke-width="1.5" opacity="0.9"/></g><g class="mark-text role-legend-label clade_legend_labels"><text text-anchor="start" transform="translate(16,9)" font-family="sans-serif" font-size="10px" fill="#000" opacity="1">20I (Alpha)</text></g></g><path class="foreground" aria-hidden="true" d="" display="none"/></g><g transform="translate(0,96)"><path class="background" aria-hidden="true" d="M0,0h128.265625v12.5h-128.265625Z" opacity="1"/><g><g class="mark-symbol role-legend-symbol clade_legend_symbols"><path transform="translate(6,6)" d="M5,0A5,5,0,1,1,-5,0A5,5,0,1,1,5,0" fill="rgb(35, 136, 142)" stroke="black" stroke-width="1.5" opacity="0.9"/></g><g class="mark-text role-legend-label clade_legend_labels"><text text-anchor="start" transform="translate(16,9)" font-family="sans-serif" font-size="10px" fill="#000" opacity="1">21C (Epsilon)</text></g></g><path class="foreground" aria-hidden="true" d="" display="none"/></g><g transform="translate(0,112)"><path class="background" aria-hidden="true" d="M0,0h128.265625v12.5h-128.265625Z" opacity="1"/><g><g class="mark-symbol role-legend-symbol clade_legend_symbols"><path transform="translate(6,6)" d="M5,0A5,5,0,1,1,-5,0A5,5,0,1,1,5,0" fill="rgb(31, 152, 139)" stroke="black" stroke-width="1.5" opacity="0.9"/></g><g class="mark-text role-legend-label clade_legend_labels"><text text-anchor="start" transform="translate(16,9)" font-family="sans-serif" font-size="10px" fill="#000" opacity="1">21I (Delta)</text></g></g><path class="foreground" aria-hidden="true" d="" display="none"/></g><g transform="translate(0,128)"><path class="background" aria-hidden="true" d="M0,0h128.265625v12.5h-128.265625Z" opacity="1"/><g><g class="mark-symbol role-legend-symbol clade_legend_symbols"><path transform="translate(6,6)" d="M5,0A5,5,0,1,1,-5,0A5,5,0,1,1,5,0" fill="rgb(34, 168, 132)" stroke="black" stroke-width="1.5" opacity="0.9"/></g><g class="mark-text role-legend-label clade_legend_labels"><text text-anchor="start" transform="translate(16,9)" font-family="sans-serif" font-size="10px" fill="#000" opacity="1">21J (Delta)</text></g></g><path class="foreground" aria-hidden="true" d="" display="none"/></g><g transform="translate(0,144)"><path class="background" aria-hidden="true" d="M0,0h128.265625v12.5h-128.265625Z" opacity="1"/><g><g class="mark-symbol role-legend-symbol clade_legend_symbols"><path transform="translate(6,6)" d="M5,0A5,5,0,1,1,-5,0A5,5,0,1,1,5,0" fill="rgb(53, 183, 121)" stroke="black" stroke-width="1.5" opacity="0.9"/></g><g class="mark-text role-legend-label clade_legend_labels"><text text-anchor="start" transform="translate(16,9)" font-family="sans-serif" font-size="10px" fill="#000" opacity="1">21K (Omicron BA.1)</text></g></g><path class="foreground" aria-hidden="true" d="" display="none"/></g><g transform="translate(0,160)"><path class="background" aria-hidden="true" d="M0,0h128.265625v12.5h-128.265625Z" opacity="1"/><g><g class="mark-symbol role-legend-symbol clade_legend_symbols"><path transform="translate(6,6)" d="M5,0A5,5,0,1,1,-5,0A5,5,0,1,1,5,0" fill="rgb(84, 197, 104)" stroke="black" stroke-width="1.5" opacity="0.9"/></g><g class="mark-text role-legend-label clade_legend_labels"><text text-anchor="start" transform="translate(16,9)" font-family="sans-serif" font-size="10px" fill="#000" opacity="1">21L (Omicron BA.2)</text></g></g><path class="foreground" aria-hidden="true" d="" display="none"/></g><g transform="translate(0,176)"><path class="background" aria-hidden="true" d="M0,0h128.265625v12.5h-128.265625Z" opacity="1"/><g><g class="mark-symbol role-legend-symbol clade_legend_symbols"><path transform="translate(6,6)" d="M5,0A5,5,0,1,1,-5,0A5,5,0,1,1,5,0" fill="rgb(122, 209, 81)" stroke="black" stroke-width="1.5" opacity="0.9"/></g><g class="mark-text role-legend-label clade_legend_labels"><text text-anchor="start" transform="translate(16,9)" font-family="sans-serif" font-size="10px" fill="#000" opacity="1">22A (Omicron BA.4)</text></g></g><path class="foreground" aria-hidden="true" d="" display="none"/></g><g transform="translate(0,192)"><path class="background" aria-hidden="true" d="M0,0h128.265625v12.5h-128.265625Z" opacity="1"/><g><g class="mark-symbol role-legend-symbol clade_legend_symbols"><path transform="translate(6,6)" d="M5,0A5,5,0,1,1,-5,0A5,5,0,1,1,5,0" fill="rgb(165, 219, 54)" stroke="black" stroke-width="1.5" opacity="0.9"/></g><g class="mark-text role-legend-label clade_legend_labels"><text text-anchor="start" transform="translate(16,9)" font-family="sans-serif" font-size="10px" fill="#000" opacity="1">22B (Omicron BA.5)</text></g></g><path class="foreground" aria-hidden="true" d="" display="none"/></g><g transform="translate(0,208)"><path class="background" aria-hidden="true" d="M0,0h128.265625v12.5h-128.265625Z" opacity="1"/><g><g class="mark-symbol role-legend-symbol clade_legend_symbols"><path transform="translate(6,6)" d="M5,0A5,5,0,1,1,-5,0A5,5,0,1,1,5,0" fill="rgb(210, 226, 27)" stroke="black" stroke-width="1.5" opacity="0.9"/></g><g class="mark-text role-legend-label clade_legend_labels"><text text-anchor="start" transform="translate(16,9)" font-family="sans-serif" font-size="10px" fill="#000" opacity="1">22C (Omicron BA.2.12.1)</text></g></g><path class="foreground" aria-hidden="true" d="" display="none"/></g></g></g><path class="foreground" aria-hidden="true" d="" pointer-events="none" display="none"/></g></g><g class="mark-text role-legend-title" pointer-events="none"><text text-anchor="start" transform="translate(0,9)" font-family="sans-serif" font-size="11px" font-weight="bold" fill="#000" opacity="1">clade</text></g></g><path class="foreground" aria-hidden="true" d="" pointer-events="none" display="none"/></g></g><g class="mark-group role-legend" role="graphics-symbol" aria-roledescription="legend" aria-label="Symbol legend titled 'subset' for shape with 3 values: all, USA, England"><g transform="translate(210,245)"><path class="background" aria-hidden="true" d="M0,0h53v59h-53Z" pointer-events="none"/><g><g class="mark-group role-legend-entry"><g transform="translate(0,16)"><path class="background" aria-hidden="true" d="M0,0h0v0h0Z" pointer-events="none"/><g><g class="mark-group role-scope subset_legend_entries" role="graphics-object" aria-roledescription="group mark container"><g transform="translate(0,0)"><path class="background" aria-hidden="true" d="M0,0h52.69921875v12.5h-52.69921875Z" opacity="1"/><g><g class="mark-symbol role-legend-symbol subset_legend_symbols"><path transform="translate(6,6)" d="M5,0A5,5,0,1,1,-5,0A5,5,0,1,1,5,0" fill="black" fill-opacity="0.9" stroke="black" stroke-width="1.5" opacity="0.9"/></g><g class="mark-text role-legend-label subset_legend_labels"><text text-anchor="start" transform="translate(16,9)" font-family="sans-serif" font-size="10px" fill="#000" opacity="1">all</text></g></g><path class="foreground" aria-hidden="true" d="" display="none"/></g><g transform="translate(0,16)"><path class="background" aria-hidden="true" d="M0,0h52.69921875v12.5h-52.69921875Z" opacity="1"/><g><g class="mark-symbol role-legend-symbol subset_legend_symbols"><path transform="translate(6,6)" d="M-5,-5h10v10h-10Z" fill="black" fill-opacity="0.9" stroke="black" stroke-width="1.5" opacity="0.9"/></g><g class="mark-text role-legend-label subset_legend_labels"><text text-anchor="start" transform="translate(16,9)" font-family="sans-serif" font-size="10px" fill="#000" opacity="1">USA</text></g></g><path class="foreground" aria-hidden="true" d="" display="none"/></g><g transform="translate(0,31)"><path class="background" aria-hidden="true" d="M0,0h52.69921875v11.830127018922191h-52.69921875Z" opacity="1"/><g><g class="mark-symbol role-legend-symbol subset_legend_symbols"><path transform="translate(6,6)" d="M0,-4.330127018922193L-5,4.330127018922193L5,4.330127018922193Z" fill="black" fill-opacity="0.9" stroke="black" stroke-width="1.5" opacity="0.9"/></g><g class="mark-text role-legend-label subset_legend_labels"><text text-anchor="start" transform="translate(16,9)" font-family="sans-serif" font-size="10px" fill="#000" opacity="1">England</text></g></g><path class="foreground" aria-hidden="true" d="" display="none"/></g></g></g><path class="foreground" aria-hidden="true" d="" pointer-events="none" display="none"/></g></g><g class="mark-text role-legend-title" pointer-events="none"><text text-anchor="start" transform="translate(0,9)" font-family="sans-serif" font-size="11px" font-weight="bold" fill="#000" opacity="1">subset</text></g></g><path class="foreground" aria-hidden="true" d="" pointer-events="none" display="none"/></g></g><g class="mark-group role-title"><g transform="translate(95.84178058162539,-17)"><path class="background" aria-hidden="true" d="M0,0h0v0h0Z" pointer-events="none"/><g><g class="mark-text role-title-text" role="graphics-symbol" aria-roledescription="title" aria-label="Title text 'by region, whole genome'" pointer-events="none"><text text-anchor="middle" transform="translate(0,10)" font-family="sans-serif" font-size="13px" font-weight="bold" fill="#000" opacity="1">by region, whole genome</text></g></g><path class="foreground" aria-hidden="true" d="" pointer-events="none" display="none"/></g></g></g><path class="foreground" aria-hidden="true" d="" display="none"/></g></g></g></svg>