<svg xmlns="http://www.w3.org/2000/svg" xmlns:xlink="http://www.w3.org/1999/xlink" version="1.1" class="marks" width="401.4530547199605" height="342" viewBox="0 0 401.4530547199605 342"><rect width="401.4530547199605" height="342" fill="white"/><g fill="none" stroke-miterlimit="10" transform="translate(20,22)"><g class="mark-group role-frame root" role="graphics-object" aria-roledescription="group mark container"><g transform="translate(0,0)"><path class="background" aria-hidden="true" d="M0.5,0.5h228.45305471996048v300h-228.45305471996048Z" stroke="#ddd"/><g><g class="mark-group role-axis" role="graphics-symbol" aria-roledescription="axis" aria-label="X-axis titled 'PC2 (30% variance)' for a linear scale with values from −3 to 4"><g transform="translate(0.5,300.5)"><path class="background" aria-hidden="true" d="M0,0h0v0h0Z" pointer-events="none"/><g><g class="mark-rule role-axis-domain" pointer-events="none"><line transform="translate(0,0)" x2="228.45305471996048" y2="0" stroke="#888" stroke-width="1" opacity="1"/></g><g class="mark-text role-axis-title" pointer-events="none"><text text-anchor="middle" transform="translate(114.22652735998024,13)" font-family="sans-serif" font-size="11px" font-weight="bold" fill="#000" opacity="1">PC2 (30% variance)</text></g></g><path class="foreground" aria-hidden="true" d="" pointer-events="none" display="none"/></g></g><g class="mark-group role-axis" role="graphics-symbol" aria-roledescription="axis" aria-label="Y-axis titled 'PC1 (40% variance)' for a linear scale with values from −4 to 5"><g transform="translate(0.5,0.5)"><path class="background" aria-hidden="true" d="M0,0h0v0h0Z" pointer-events="none"/><g><g class="mark-rule role-axis-domain" pointer-events="none"><line transform="translate(0,300)" x2="0" y2="-300" stroke="#888" stroke-width="1" opacity="1"/></g><g class="mark-text role-axis-title" pointer-events="none"><text text-anchor="middle" transform="translate(-4,150) rotate(-90) translate(0,-2)" font-family="sans-serif" font-size="11px" font-weight="bold" fill="#000" opacity="1">PC1 (40% variance)</text></g></g><path class="foreground" aria-hidden="true" d="" pointer-events="none" display="none"/></g></g><g class="mark-symbol role-mark marks" role="graphics-object" aria-roledescription="symbol mark container"><path aria-label="clade: 20A (B.1); partition: all; total_count: 17202; PC2 (30% variance): −2.05828226389; PC1 (40% variance): 0.928069077781" role="graphics-symbol" aria-roledescription="point" transform="translate(26.97592155696148,130.8673880139946)" d="M4.031128874149275,0A4.031128874149275,4.031128874149275,0,1,1,-4.031128874149275,0A4.031128874149275,4.031128874149275,0,1,1,4.031128874149275,0" fill="rgb(72, 26, 108)" stroke="black" stroke-width="1.5" opacity="0.9"/><path aria-label="clade: 20A (B.1); partition: partition 1; total_count: 8402; PC2 (30% variance): −2.07079384162; PC1 (40% variance): −1.93902994503" role="graphics-symbol" aria-roledescription="point" transform="translate(26.537359922170758,231.14300162658571)" d="M-4.031128874149275,-4.031128874149275h8.06225774829855v8.06225774829855h-8.06225774829855Z" fill="rgb(72, 26, 108)" stroke="black" stroke-width="1.5" opacity="0.9"/><path aria-label="clade: 20A (B.1); partition: partition 2; total_count: 8800; PC2 (30% variance): −2.0463365507; PC1 (40% variance): 3.66549703115" role="graphics-symbol" aria-roledescription="point" transform="translate(27.39464824508785,35.12696692615468)" d="M0,-3.4910600109422347L-4.031128874149275,3.4910600109422347L4.031128874149275,3.4910600109422347Z" fill="rgb(72, 26, 108)" stroke="black" stroke-width="1.5" opacity="0.9"/><path aria-label="clade: 20B (B.1.1); partition: all; total_count: 14121; PC2 (30% variance): −2.36642327353; PC1 (40% variance): −0.198696502728" role="graphics-symbol" aria-roledescription="point" transform="translate(16.17481973935357,170.27555253300542)" d="M4.031128874149275,0A4.031128874149275,4.031128874149275,0,1,1,-4.031128874149275,0A4.031128874149275,4.031128874149275,0,1,1,4.031128874149275,0" fill="rgb(71, 47, 125)" stroke="black" stroke-width="1.5" opacity="0.9"/><path aria-label="clade: 20B (B.1.1); partition: partition 1; total_count: 6792; PC2 (30% variance): −2.32221407586; PC1 (40% variance): −2.77342406629" role="graphics-symbol" aria-roledescription="point" transform="translate(17.72446107356236,260.3255941493366)" d="M-4.031128874149275,-4.031128874149275h8.06225774829855v8.06225774829855h-8.06225774829855Z" fill="rgb(71, 47, 125)" stroke="black" stroke-width="1.5" opacity="0.9"/><path aria-label="clade: 20B (B.1.1); partition: partition 2; total_count: 7329; PC2 (30% variance): −2.40739323814; PC1 (40% variance): 2.18737930731" role="graphics-symbol" aria-roledescription="point" transform="translate(14.73872150740567,86.82352870190677)" d="M0,-3.4910600109422347L-4.031128874149275,3.4910600109422347L4.031128874149275,3.4910600109422347Z" fill="rgb(71, 47, 125)" stroke="black" stroke-width="1.5" opacity="0.9"/><path aria-label="clade: 20C (B.1.367); partition: all; total_count: 9344; PC2 (30% variance): −1.16421814961; PC1 (40% variance): 0.148597185098" role="graphics-symbol" aria-roledescription="point" transform="translate(58.31507222981416,158.1290980947541)" d="M4.031128874149275,0A4.031128874149275,4.031128874149275,0,1,1,-4.031128874149275,0A4.031128874149275,4.031128874149275,0,1,1,4.031128874149275,0" fill="rgb(65, 68, 135)" stroke="black" stroke-width="1.5" opacity="0.9"/><path aria-label="clade: 20E (B.1.177); partition: all; total_count: 10454; PC2 (30% variance): −1.42556595364; PC1 (40% variance): −0.440511475269" role="graphics-symbol" aria-roledescription="point" transform="translate(49.154187593368846,178.73293212100322)" d="M4.031128874149275,0A4.031128874149275,4.031128874149275,0,1,1,-4.031128874149275,0A4.031128874149275,4.031128874149275,0,1,1,4.031128874149275,0" fill="rgb(57, 86, 140)" stroke="black" stroke-width="1.5" opacity="0.9"/><path aria-label="clade: 20E (B.1.177); partition: partition 1; total_count: 5094; PC2 (30% variance): −1.52949184004; PC1 (40% variance): −2.64768931772" role="graphics-symbol" aria-roledescription="point" transform="translate(45.5113291442618,255.92807283395604)" d="M-4.031128874149275,-4.031128874149275h8.06225774829855v8.06225774829855h-8.06225774829855Z" fill="rgb(57, 86, 140)" stroke="black" stroke-width="1.5" opacity="0.9"/><path aria-label="clade: 20E (B.1.177); partition: partition 2; total_count: 5360; PC2 (30% variance): −1.32679758324; PC1 (40% variance): 1.65713104888" role="graphics-symbol" aria-roledescription="point" transform="translate(52.61626239556138,105.3687442867156)" d="M0,-3.4910600109422347L-4.031128874149275,3.4910600109422347L4.031128874149275,3.4910600109422347Z" fill="rgb(57, 86, 140)" stroke="black" stroke-width="1.5" opacity="0.9"/><path aria-label="clade: 20G (B.1.2); partition: all; total_count: 14019; PC2 (30% variance): −1.73929558859; PC1 (40% variance): −0.552121143292" role="graphics-symbol" aria-roledescription="point" transform="translate(38.15719068546423,182.63643453130712)" d="M4.031128874149275,0A4.031128874149275,4.031128874149275,0,1,1,-4.031128874149275,0A4.031128874149275,4.031128874149275,0,1,1,4.031128874149275,0" fill="rgb(49, 104, 142)" stroke="black" stroke-width="1.5" opacity="0.9"/><path aria-label="clade: 20G (B.1.2); partition: partition 1; total_count: 6984; PC2 (30% variance): −1.71393536269; PC1 (40% variance): −2.53855857774" role="graphics-symbol" aria-roledescription="point" transform="translate(39.046129104788676,252.1112699163154)" d="M-4.031128874149275,-4.031128874149275h8.06225774829855v8.06225774829855h-8.06225774829855Z" fill="rgb(49, 104, 142)" stroke="black" stroke-width="1.5" opacity="0.9"/><path aria-label="clade: 20G (B.1.2); partition: partition 2; total_count: 7035; PC2 (30% variance): −1.76447196637; PC1 (40% variance): 1.41991567862" role="graphics-symbol" aria-roledescription="point" transform="translate(37.27469659583216,113.66525466934586)" d="M0,-3.4910600109422347L-4.031128874149275,3.4910600109422347L4.031128874149275,3.4910600109422347Z" fill="rgb(49, 104, 142)" stroke="black" stroke-width="1.5" opacity="0.9"/><path aria-label="clade: 20I (Alpha); partition: all; total_count: 60858; PC2 (30% variance): −1.93964955638; PC1 (40% variance): −0.112396268403" role="graphics-symbol" aria-roledescription="point" transform="translate(31.134290331731286,167.2572371965119)" d="M4.031128874149275,0A4.031128874149275,4.031128874149275,0,1,1,-4.031128874149275,0A4.031128874149275,4.031128874149275,0,1,1,4.031128874149275,0" fill="rgb(42, 120, 142)" stroke="black" stroke-width="1.5" opacity="0.9"/><path aria-label="clade: 20I (Alpha); partition: partition 1; total_count: 29369; PC2 (30% variance): −1.29319378048; PC1 (40% variance): −2.58493452822" role="graphics-symbol" aria-roledescription="point" transform="translate(53.79415850074921,253.73324978342694)" d="M-4.031128874149275,-4.031128874149275h8.06225774829855v8.06225774829855h-8.06225774829855Z" fill="rgb(42, 120, 142)" stroke="black" stroke-width="1.5" opacity="0.9"/><path aria-label="clade: 20I (Alpha); partition: partition 2; total_count: 31489; PC2 (30% variance): −2.54258263403; PC1 (40% variance): 2.19367811162" role="graphics-symbol" aria-roledescription="point" transform="translate(9.999999999999991,86.6032306016658)" d="M0,-3.4910600109422347L-4.031128874149275,3.4910600109422347L4.031128874149275,3.4910600109422347Z" fill="rgb(42, 120, 142)" stroke="black" stroke-width="1.5" opacity="0.9"/><path aria-label="clade: 21C (Epsilon); partition: all; total_count: 6308; PC2 (30% variance): −2.02662908913; PC1 (40% variance): −0.725783502633" role="graphics-symbol" aria-roledescription="point" transform="translate(28.08544334325352,188.71020439618707)" d="M4.031128874149275,0A4.031128874149275,4.031128874149275,0,1,1,-4.031128874149275,0A4.031128874149275,4.031128874149275,0,1,1,4.031128874149275,0" fill="rgb(35, 136, 142)" stroke="black" stroke-width="1.5" opacity="0.9"/><path aria-label="clade: 21I (Delta); partition: all; total_count: 24117; PC2 (30% variance): −0.276020782582; PC1 (40% variance): 1.55297874025" role="graphics-symbol" aria-roledescription="point" transform="translate(89.44857895281912,109.01142860769426)" d="M4.031128874149275,0A4.031128874149275,4.031128874149275,0,1,1,-4.031128874149275,0A4.031128874149275,4.031128874149275,0,1,1,4.031128874149275,0" fill="rgb(31, 152, 139)" stroke="black" stroke-width="1.5" opacity="0.9"/><path aria-label="clade: 21I (Delta); partition: partition 1; total_count: 11661; PC2 (30% variance): −0.239755787166; PC1 (40% variance): −0.969859628689" role="graphics-symbol" aria-roledescription="point" transform="translate(90.71975641913829,197.24666690192473)" d="M-4.031128874149275,-4.031128874149275h8.06225774829855v8.06225774829855h-8.06225774829855Z" fill="rgb(31, 152, 139)" stroke="black" stroke-width="1.5" opacity="0.9"/><path aria-label="clade: 21I (Delta); partition: partition 2; total_count: 12456; PC2 (30% variance): −0.309971176894; PC1 (40% variance): 3.91479780096" role="graphics-symbol" aria-roledescription="point" transform="translate(88.25853395966325,26.40777464582672)" d="M0,-3.4910600109422347L-4.031128874149275,3.4910600109422347L4.031128874149275,3.4910600109422347Z" fill="rgb(31, 152, 139)" stroke="black" stroke-width="1.5" opacity="0.9"/><path aria-label="clade: 21J (Delta); partition: all; total_count: 282051; PC2 (30% variance): 0.149216326845; PC1 (40% variance): 1.96358343794" role="graphics-symbol" aria-roledescription="point" transform="translate(104.35418765720294,94.65069753907956)" d="M4.031128874149275,0A4.031128874149275,4.031128874149275,0,1,1,-4.031128874149275,0A4.031128874149275,4.031128874149275,0,1,1,4.031128874149275,0" fill="rgb(34, 168, 132)" stroke="black" stroke-width="1.5" opacity="0.9"/><path aria-label="clade: 21J (Delta); partition: partition 1; total_count: 133486; PC2 (30% variance): 0.12738936199; PC1 (40% variance): −0.730175283428" role="graphics-symbol" aria-roledescription="point" transform="translate(103.58909874534172,188.86380513008814)" d="M-4.031128874149275,-4.031128874149275h8.06225774829855v8.06225774829855h-8.06225774829855Z" fill="rgb(34, 168, 132)" stroke="black" stroke-width="1.5" opacity="0.9"/><path aria-label="clade: 21J (Delta); partition: partition 2; total_count: 148565; PC2 (30% variance): 0.168827905821; PC1 (40% variance): 4.38393194991" role="graphics-symbol" aria-roledescription="point" transform="translate(105.04162183408654,9.999999999999998)" d="M0,-3.4910600109422347L-4.031128874149275,3.4910600109422347L4.031128874149275,3.4910600109422347Z" fill="rgb(34, 168, 132)" stroke="black" stroke-width="1.5" opacity="0.9"/><path aria-label="clade: 21K (Omicron BA.1); partition: all; total_count: 113721; PC2 (30% variance): 2.41579542741; PC1 (40% variance): −0.575278094849" role="graphics-symbol" aria-roledescription="point" transform="translate(183.8033712342424,183.44633942414262)" d="M4.031128874149275,0A4.031128874149275,4.031128874149275,0,1,1,-4.031128874149275,0A4.031128874149275,4.031128874149275,0,1,1,4.031128874149275,0" fill="rgb(53, 183, 121)" stroke="black" stroke-width="1.5" opacity="0.9"/><path aria-label="clade: 21K (Omicron BA.1); partition: partition 1; total_count: 57856; PC2 (30% variance): 2.3147028433; PC1 (40% variance): −3.38334216859" role="graphics-symbol" aria-roledescription="point" transform="translate(180.25982701312458,281.65722988112236)" d="M-4.031128874149275,-4.031128874149275h8.06225774829855v8.06225774829855h-8.06225774829855Z" fill="rgb(53, 183, 121)" stroke="black" stroke-width="1.5" opacity="0.9"/><path aria-label="clade: 21K (Omicron BA.1); partition: partition 2; total_count: 55865; PC2 (30% variance): 2.52049089947; PC1 (40% variance): 2.3328639449" role="graphics-symbol" aria-roledescription="point" transform="translate(187.4732055572889,81.73526311018902)" d="M0,-3.4910600109422347L-4.031128874149275,3.4910600109422347L4.031128874149275,3.4910600109422347Z" fill="rgb(53, 183, 121)" stroke="black" stroke-width="1.5" opacity="0.9"/><path aria-label="clade: 21L (Omicron BA.2); partition: all; total_count: 83475; PC2 (30% variance): 1.51937825273; PC1 (40% variance): 0.0332065591413" role="graphics-symbol" aria-roledescription="point" transform="translate(152.38173999482046,162.16483795964618)" d="M4.031128874149275,0A4.031128874149275,4.031128874149275,0,1,1,-4.031128874149275,0A4.031128874149275,4.031128874149275,0,1,1,4.031128874149275,0" fill="rgb(84, 197, 104)" stroke="black" stroke-width="1.5" opacity="0.9"/><path aria-label="clade: 21L (Omicron BA.2); partition: partition 1; total_count: 40949; PC2 (30% variance): 0.828904022848; PC1 (40% variance): −2.86917229235" role="graphics-symbol" aria-roledescription="point" transform="translate(128.17891652778505,263.67434912575936)" d="M-4.031128874149275,-4.031128874149275h8.06225774829855v8.06225774829855h-8.06225774829855Z" fill="rgb(84, 197, 104)" stroke="black" stroke-width="1.5" opacity="0.9"/><path aria-label="clade: 21L (Omicron BA.2); partition: partition 2; total_count: 42526; PC2 (30% variance): 2.1842474913; PC1 (40% variance): 2.82795592635" role="graphics-symbol" aria-roledescription="point" transform="translate(175.68704541154509,64.41962390844999)" d="M0,-3.4910600109422347L-4.031128874149275,3.4910600109422347L4.031128874149275,3.4910600109422347Z" fill="rgb(84, 197, 104)" stroke="black" stroke-width="1.5" opacity="0.9"/><path aria-label="clade: 22A (Omicron BA.4); partition: all; total_count: 11413; PC2 (30% variance): 2.39982254067; PC1 (40% variance): −0.716005467707" role="graphics-symbol" aria-roledescription="point" transform="translate(183.24348218778078,188.36822163090926)" d="M4.031128874149275,0A4.031128874149275,4.031128874149275,0,1,1,-4.031128874149275,0A4.031128874149275,4.031128874149275,0,1,1,4.031128874149275,0" fill="rgb(122, 209, 81)" stroke="black" stroke-width="1.5" opacity="0.9"/><path aria-label="clade: 22A (Omicron BA.4); partition: partition 1; total_count: 5593; PC2 (30% variance): 1.92406129293; PC1 (40% variance): −3.10169554044" role="graphics-symbol" aria-roledescription="point" transform="translate(166.56687791614576,271.8067544577734)" d="M-4.031128874149275,-4.031128874149275h8.06225774829855v8.06225774829855h-8.06225774829855Z" fill="rgb(122, 209, 81)" stroke="black" stroke-width="1.5" opacity="0.9"/><path aria-label="clade: 22A (Omicron BA.4); partition: partition 2; total_count: 5820; PC2 (30% variance): 2.85702746483; PC1 (40% variance): 1.57663449394" role="graphics-symbol" aria-roledescription="point" transform="translate(199.26964158490364,108.1840783146461)" d="M0,-3.4910600109422347L-4.031128874149275,3.4910600109422347L4.031128874149275,3.4910600109422347Z" fill="rgb(122, 209, 81)" stroke="black" stroke-width="1.5" opacity="0.9"/><path aria-label="clade: 22B (Omicron BA.5); partition: all; total_count: 64765; PC2 (30% variance): 2.34108444443; PC1 (40% variance): −0.349798804101" role="graphics-symbol" aria-roledescription="point" transform="translate(181.18456715148852,175.56029361376986)" d="M4.031128874149275,0A4.031128874149275,4.031128874149275,0,1,1,-4.031128874149275,0A4.031128874149275,4.031128874149275,0,1,1,4.031128874149275,0" fill="rgb(165, 219, 54)" stroke="black" stroke-width="1.5" opacity="0.9"/><path aria-label="clade: 22B (Omicron BA.5); partition: partition 1; total_count: 31615; PC2 (30% variance): 1.22624184216; PC1 (40% variance): −3.09405056205" role="graphics-symbol" aria-roledescription="point" transform="translate(142.1065863545615,271.5393744708984)" d="M-4.031128874149275,-4.031128874149275h8.06225774829855v8.06225774829855h-8.06225774829855Z" fill="rgb(165, 219, 54)" stroke="black" stroke-width="1.5" opacity="0.9"/><path aria-label="clade: 22B (Omicron BA.5); partition: partition 2; total_count: 33150; PC2 (30% variance): 3.40430462152; PC1 (40% variance): 2.26738126611" role="graphics-symbol" aria-roledescription="point" transform="translate(218.45305471996048,84.02549297129262)" d="M0,-3.4910600109422347L-4.031128874149275,3.4910600109422347L4.031128874149275,3.4910600109422347Z" fill="rgb(165, 219, 54)" stroke="black" stroke-width="1.5" opacity="0.9"/><path aria-label="clade: 22C (Omicron BA.2.12.1); partition: all; total_count: 18958; PC2 (30% variance): 2.06842803642; PC1 (40% variance): −0.89353942412" role="graphics-symbol" aria-roledescription="point" transform="translate(171.627288074816,194.57739901713074)" d="M4.031128874149275,0A4.031128874149275,4.031128874149275,0,1,1,-4.031128874149275,0A4.031128874149275,4.031128874149275,0,1,1,4.031128874149275,0" fill="rgb(210, 226, 27)" stroke="black" stroke-width="1.5" opacity="0.9"/><path aria-label="clade: 22C (Omicron BA.2.12.1); partition: partition 1; total_count: 9355; PC2 (30% variance): 1.14853990202; PC1 (40% variance): −3.62188020584" role="graphics-symbol" aria-roledescription="point" transform="translate(139.38294185214016,290.00000000000006)" d="M-4.031128874149275,-4.031128874149275h8.06225774829855v8.06225774829855h-8.06225774829855Z" fill="rgb(210, 226, 27)" stroke="black" stroke-width="1.5" opacity="0.9"/><path aria-label="clade: 22C (Omicron BA.2.12.1); partition: partition 2; total_count: 9603; PC2 (30% variance): 2.96455981787; PC1 (40% variance): 1.76434123953" role="graphics-symbol" aria-roledescription="point" transform="translate(203.03891557800586,101.61911179493544)" d="M0,-3.4910600109422347L-4.031128874149275,3.4910600109422347L4.031128874149275,3.4910600109422347Z" fill="rgb(210, 226, 27)" stroke="black" stroke-width="1.5" opacity="0.9"/></g><g class="mark-group role-legend" role="graphics-symbol" aria-roledescription="legend" aria-label="Symbol legend titled 'clade' for fill color with 14 values: 20A (B.1), 20B (B.1.1), 20C (B.1.367), 20E (B.1.177), 20G (B.1.2), ending with 22C (Omicron BA.2.12.1)"><g transform="translate(247,0)"><path class="background" aria-hidden="true" d="M0,0h129v237h-129Z" pointer-events="none"/><g><g class="mark-group role-legend-entry"><g transform="translate(0,16)"><path class="background" aria-hidden="true" d="M0,0h0v0h0Z" pointer-events="none"/><g><g class="mark-group role-scope clade_legend_entries" role="graphics-object" aria-roledescription="group mark container"><g transform="translate(0,0)"><path class="background" aria-hidden="true" d="M0,0h128.265625v12.5h-128.265625Z" opacity="1"/><g><g class="mark-symbol role-legend-symbol clade_legend_symbols"><path transform="translate(6,6)" d="M5,0A5,5,0,1,1,-5,0A5,5,0,1,1,5,0" fill="rgb(72, 26, 108)" stroke="black" stroke-width="1.5" opacity="0.9"/></g><g class="mark-text role-legend-label clade_legend_labels"><text text-anchor="start" transform="translate(16,9)" font-family="sans-serif" font-size="10px" fill="#000" opacity="1">20A (B.1)</text></g></g><path class="foreground" aria-hidden="true" d="" display="none"/></g><g transform="translate(0,16)"><path class="background" aria-hidden="true" d="M0,0h128.265625v12.5h-128.265625Z" opacity="1"/><g><g class="mark-symbol role-legend-symbol clade_legend_symbols"><path transform="translate(6,6)" d="M5,0A5,5,0,1,1,-5,0A5,5,0,1,1,5,0" fill="rgb(71, 47, 125)" stroke="black" stroke-width="1.5" opacity="0.9"/></g><g class="mark-text role-legend-label clade_legend_labels"><text text-anchor="start" transform="translate(16,9)" font-family="sans-serif" font-size="10px" fill="#000" opacity="1">20B (B.1.1)</text></g></g><path class="foreground" aria-hidden="true" d="" display="none"/></g><g transform="translate(0,32)"><path class="background" aria-hidden="true" d="M0,0h128.265625v12.5h-128.265625Z" opacity="1"/><g><g class="mark-symbol role-legend-symbol clade_legend_symbols"><path transform="translate(6,6)" d="M5,0A5,5,0,1,1,-5,0A5,5,0,1,1,5,0" fill="rgb(65, 68, 135)" stroke="black" stroke-width="1.5" opacity="0.9"/></g><g class="mark-text role-legend-label clade_legend_labels"><text text-anchor="start" transform="translate(16,9)" font-family="sans-serif" font-size="10px" fill="#000" opacity="1">20C (B.1.367)</text></g></g><path class="foreground" aria-hidden="true" d="" display="none"/></g><g transform="translate(0,48)"><path class="background" aria-hidden="true" d="M0,0h128.265625v12.5h-128.265625Z" opacity="1"/><g><g class="mark-symbol role-legend-symbol clade_legend_symbols"><path transform="translate(6,6)" d="M5,0A5,5,0,1,1,-5,0A5,5,0,1,1,5,0" fill="rgb(57, 86, 140)" stroke="black" stroke-width="1.5" opacity="0.9"/></g><g class="mark-text role-legend-label clade_legend_labels"><text text-anchor="start" transform="translate(16,9)" font-family="sans-serif" font-size="10px" fill="#000" opacity="1">20E (B.1.177)</text></g></g><path class="foreground" aria-hidden="true" d="" display="none"/></g><g transform="translate(0,64)"><path class="background" aria-hidden="true" d="M0,0h128.265625v12.5h-128.265625Z" opacity="1"/><g><g class="mark-symbol role-legend-symbol clade_legend_symbols"><path transform="translate(6,6)" d="M5,0A5,5,0,1,1,-5,0A5,5,0,1,1,5,0" fill="rgb(49, 104, 142)" stroke="black" stroke-width="1.5" opacity="0.9"/></g><g class="mark-text role-legend-label clade_legend_labels"><text text-anchor="start" transform="translate(16,9)" font-family="sans-serif" font-size="10px" fill="#000" opacity="1">20G (B.1.2)</text></g></g><path class="foreground" aria-hidden="true" d="" display="none"/></g><g transform="translate(0,80)"><path class="background" aria-hidden="true" d="M0,0h128.265625v12.5h-128.265625Z" opacity="1"/><g><g class="mark-symbol role-legend-symbol clade_legend_symbols"><path transform="translate(6,6)" d="M5,0A5,5,0,1,1,-5,0A5,5,0,1,1,5,0" fill="rgb(42, 120, 142)" stroke="black" stroke-width="1.5" opacity="0.9"/></g><g class="mark-text role-legend-label clade_legend_labels"><text text-anchor="start" transform="translate(16,9)" font-family="sans-serif" font-size="10px" fill="#000" opacity="1">20I (Alpha)</text></g></g><path class="foreground" aria-hidden="true" d="" display="none"/></g><g transform="translate(0,96)"><path class="background" aria-hidden="true" d="M0,0h128.265625v12.5h-128.265625Z" opacity="1"/><g><g class="mark-symbol role-legend-symbol clade_legend_symbols"><path transform="translate(6,6)" d="M5,0A5,5,0,1,1,-5,0A5,5,0,1,1,5,0" fill="rgb(35, 136, 142)" stroke="black" stroke-width="1.5" opacity="0.9"/></g><g class="mark-text role-legend-label clade_legend_labels"><text text-anchor="start" transform="translate(16,9)" font-family="sans-serif" font-size="10px" fill="#000" opacity="1">21C (Epsilon)</text></g></g><path class="foreground" aria-hidden="true" d="" display="none"/></g><g transform="translate(0,112)"><path class="background" aria-hidden="true" d="M0,0h128.265625v12.5h-128.265625Z" opacity="1"/><g><g class="mark-symbol role-legend-symbol clade_legend_symbols"><path transform="translate(6,6)" d="M5,0A5,5,0,1,1,-5,0A5,5,0,1,1,5,0" fill="rgb(31, 152, 139)" stroke="black" stroke-width="1.5" opacity="0.9"/></g><g class="mark-text role-legend-label clade_legend_labels"><text text-anchor="start" transform="translate(16,9)" font-family="sans-serif" font-size="10px" fill="#000" opacity="1">21I (Delta)</text></g></g><path class="foreground" aria-hidden="true" d="" display="none"/></g><g transform="translate(0,128)"><path class="background" aria-hidden="true" d="M0,0h128.265625v12.5h-128.265625Z" opacity="1"/><g><g class="mark-symbol role-legend-symbol clade_legend_symbols"><path transform="translate(6,6)" d="M5,0A5,5,0,1,1,-5,0A5,5,0,1,1,5,0" fill="rgb(34, 168, 132)" stroke="black" stroke-width="1.5" opacity="0.9"/></g><g class="mark-text role-legend-label clade_legend_labels"><text text-anchor="start" transform="translate(16,9)" font-family="sans-serif" font-size="10px" fill="#000" opacity="1">21J (Delta)</text></g></g><path class="foreground" aria-hidden="true" d="" display="none"/></g><g transform="translate(0,144)"><path class="background" aria-hidden="true" d="M0,0h128.265625v12.5h-128.265625Z" opacity="1"/><g><g class="mark-symbol role-legend-symbol clade_legend_symbols"><path transform="translate(6,6)" d="M5,0A5,5,0,1,1,-5,0A5,5,0,1,1,5,0" fill="rgb(53, 183, 121)" stroke="black" stroke-width="1.5" opacity="0.9"/></g><g class="mark-text role-legend-label clade_legend_labels"><text text-anchor="start" transform="translate(16,9)" font-family="sans-serif" font-size="10px" fill="#000" opacity="1">21K (Omicron BA.1)</text></g></g><path class="foreground" aria-hidden="true" d="" display="none"/></g><g transform="translate(0,160)"><path class="background" aria-hidden="true" d="M0,0h128.265625v12.5h-128.265625Z" opacity="1"/><g><g class="mark-symbol role-legend-symbol clade_legend_symbols"><path transform="translate(6,6)" d="M5,0A5,5,0,1,1,-5,0A5,5,0,1,1,5,0" fill="rgb(84, 197, 104)" stroke="black" stroke-width="1.5" opacity="0.9"/></g><g class="mark-text role-legend-label clade_legend_labels"><text text-anchor="start" transform="translate(16,9)" font-family="sans-serif" font-size="10px" fill="#000" opacity="1">21L (Omicron BA.2)</text></g></g><path class="foreground" aria-hidden="true" d="" display="none"/></g><g transform="translate(0,176)"><path class="background" aria-hidden="true" d="M0,0h128.265625v12.5h-128.265625Z" opacity="1"/><g><g class="mark-symbol role-legend-symbol clade_legend_symbols"><path transform="translate(6,6)" d="M5,0A5,5,0,1,1,-5,0A5,5,0,1,1,5,0" fill="rgb(122, 209, 81)" stroke="black" stroke-width="1.5" opacity="0.9"/></g><g class="mark-text role-legend-label clade_legend_labels"><text text-anchor="start" transform="translate(16,9)" font-family="sans-serif" font-size="10px" fill="#000" opacity="1">22A (Omicron BA.4)</text></g></g><path class="foreground" aria-hidden="true" d="" display="none"/></g><g transform="translate(0,192)"><path class="background" aria-hidden="true" d="M0,0h128.265625v12.5h-128.265625Z" opacity="1"/><g><g class="mark-symbol role-legend-symbol clade_legend_symbols"><path transform="translate(6,6)" d="M5,0A5,5,0,1,1,-5,0A5,5,0,1,1,5,0" fill="rgb(165, 219, 54)" stroke="black" stroke-width="1.5" opacity="0.9"/></g><g class="mark-text role-legend-label clade_legend_labels"><text text-anchor="start" transform="translate(16,9)" font-family="sans-serif" font-size="10px" fill="#000" opacity="1">22B (Omicron BA.5)</text></g></g><path class="foreground" aria-hidden="true" d="" display="none"/></g><g transform="translate(0,208)"><path class="background" aria-hidden="true" d="M0,0h128.265625v12.5h-128.265625Z" opacity="1"/><g><g class="mark-symbol role-legend-symbol clade_legend_symbols"><path transform="translate(6,6)" d="M5,0A5,5,0,1,1,-5,0A5,5,0,1,1,5,0" fill="rgb(210, 226, 27)" stroke="black" stroke-width="1.5" opacity="0.9"/></g><g class="mark-text role-legend-label clade_legend_labels"><text text-anchor="start" transform="translate(16,9)" font-family="sans-serif" font-size="10px" fill="#000" opacity="1">22C (Omicron BA.2.12.1)</text></g></g><path class="foreground" aria-hidden="true" d="" display="none"/></g></g></g><path class="foreground" aria-hidden="true" d="" pointer-events="none" display="none"/></g></g><g class="mark-text role-legend-title" pointer-events="none"><text text-anchor="start" transform="translate(0,9)" font-family="sans-serif" font-size="11px" font-weight="bold" fill="#000" opacity="1">clade</text></g></g><path class="foreground" aria-hidden="true" d="" pointer-events="none" display="none"/></g></g><g class="mark-group role-legend" role="graphics-symbol" aria-roledescription="legend" aria-label="Symbol legend titled 'partition' for shape with 3 values: all, partition 1, partition 2"><g transform="translate(247,245)"><path class="background" aria-hidden="true" d="M0,0h60v59h-60Z" pointer-events="none"/><g><g class="mark-group role-legend-entry"><g transform="translate(0,16)"><path class="background" aria-hidden="true" d="M0,0h0v0h0Z" pointer-events="none"/><g><g class="mark-group role-scope partition_legend_entries" role="graphics-object" aria-roledescription="group mark container"><g transform="translate(0,0)"><path class="background" aria-hidden="true" d="M0,0h59.916015625v12.5h-59.916015625Z" opacity="1"/><g><g class="mark-symbol role-legend-symbol partition_legend_symbols"><path transform="translate(6,6)" d="M5,0A5,5,0,1,1,-5,0A5,5,0,1,1,5,0" fill="black" fill-opacity="0.9" stroke="black" stroke-width="1.5" opacity="0.9"/></g><g class="mark-text role-legend-label partition_legend_labels"><text text-anchor="start" transform="translate(16,9)" font-family="sans-serif" font-size="10px" fill="#000" opacity="1">all</text></g></g><path class="foreground" aria-hidden="true" d="" display="none"/></g><g transform="translate(0,16)"><path class="background" aria-hidden="true" d="M0,0h59.916015625v12.5h-59.916015625Z" opacity="1"/><g><g class="mark-symbol role-legend-symbol partition_legend_symbols"><path transform="translate(6,6)" d="M-5,-5h10v10h-10Z" fill="black" fill-opacity="0.9" stroke="black" stroke-width="1.5" opacity="0.9"/></g><g class="mark-text role-legend-label partition_legend_labels"><text text-anchor="start" transform="translate(16,9)" font-family="sans-serif" font-size="10px" fill="#000" opacity="1">partition 1</text></g></g><path class="foreground" aria-hidden="true" d="" display="none"/></g><g transform="translate(0,31)"><path class="background" aria-hidden="true" d="M0,0h59.916015625v11.830127018922191h-59.916015625Z" opacity="1"/><g><g class="mark-symbol role-legend-symbol partition_legend_symbols"><path transform="translate(6,6)" d="M0,-4.330127018922193L-5,4.330127018922193L5,4.330127018922193Z" fill="black" fill-opacity="0.9" stroke="black" stroke-width="1.5" opacity="0.9"/></g><g class="mark-text role-legend-label partition_legend_labels"><text text-anchor="start" transform="translate(16,9)" font-family="sans-serif" font-size="10px" fill="#000" opacity="1">partition 2</text></g></g><path class="foreground" aria-hidden="true" d="" display="none"/></g></g></g><path class="foreground" aria-hidden="true" d="" pointer-events="none" display="none"/></g></g><g class="mark-text role-legend-title" pointer-events="none"><text text-anchor="start" transform="translate(0,9)" font-family="sans-serif" font-size="11px" font-weight="bold" fill="#000" opacity="1">partition</text></g></g><path class="foreground" aria-hidden="true" d="" pointer-events="none" display="none"/></g></g><g class="mark-group role-title"><g transform="translate(114.22652735998024,-17)"><path class="background" aria-hidden="true" d="M0,0h0v0h0Z" pointer-events="none"/><g><g class="mark-text role-title-text" role="graphics-symbol" aria-roledescription="title" aria-label="Title text 'all samples, partitioned genome'" pointer-events="none"><text text-anchor="middle" transform="translate(0,10)" font-family="sans-serif" font-size="13px" font-weight="bold" fill="#000" opacity="1">all samples, partitioned genome</text></g></g><path class="foreground" aria-hidden="true" d="" pointer-events="none" display="none"/></g></g></g><path class="foreground" aria-hidden="true" d="" display="none"/></g></g></g></svg>