<svg xmlns="http://www.w3.org/2000/svg" xmlns:xlink="http://www.w3.org/1999/xlink" version="1.1" class="marks" width="342.555456092349" height="342" viewBox="0 0 342.555456092349 342"><rect width="342.555456092349" height="342" fill="white"/><g fill="none" stroke-miterlimit="10" transform="translate(20,22)"><g class="mark-group role-frame root" role="graphics-object" aria-roledescription="group mark container"><g transform="translate(0,0)"><path class="background" aria-hidden="true" d="M0.5,0.5h169.555456092349v300h-169.555456092349Z" stroke="#ddd"/><g><g class="mark-group role-axis" role="graphics-symbol" aria-roledescription="axis" aria-label="X-axis titled 'PC2 (22% variance)' for a linear scale with values from −3 to 4"><g transform="translate(0.5,300.5)"><path class="background" aria-hidden="true" d="M0,0h0v0h0Z" pointer-events="none"/><g><g class="mark-rule role-axis-domain" pointer-events="none"><line transform="translate(0,0)" x2="169.555456092349" y2="0" stroke="#888" stroke-width="1" opacity="1"/></g><g class="mark-text role-axis-title" pointer-events="none"><text text-anchor="middle" transform="translate(84.7777280461745,13)" font-family="sans-serif" font-size="11px" font-weight="bold" fill="#000" opacity="1">PC2 (22% variance)</text></g></g><path class="foreground" aria-hidden="true" d="" pointer-events="none" display="none"/></g></g><g class="mark-group role-axis" role="graphics-symbol" aria-roledescription="axis" aria-label="Y-axis titled 'PC1 (39% variance)' for a linear scale with values from −3 to 4"><g transform="translate(0.5,0.5)"><path class="background" aria-hidden="true" d="M0,0h0v0h0Z" pointer-events="none"/><g><g class="mark-rule role-axis-domain" pointer-events="none"><line transform="translate(0,300)" x2="0" y2="-300" stroke="#888" stroke-width="1" opacity="1"/></g><g class="mark-text role-axis-title" pointer-events="none"><text text-anchor="middle" transform="translate(-4,150) rotate(-90) translate(0,-2)" font-family="sans-serif" font-size="11px" font-weight="bold" fill="#000" opacity="1">PC1 (39% variance)</text></g></g><path class="foreground" aria-hidden="true" d="" pointer-events="none" display="none"/></g></g><g class="mark-symbol role-mark marks" role="graphics-object" aria-roledescription="symbol mark container"><path aria-label="clade: 20A (B.1); subset: USA; total_count: 8439; PC2 (22% variance): 0.673774534992; PC1 (39% variance): 2.83406043427" role="graphics-symbol" aria-roledescription="point" transform="translate(88.80883554785132,39.06795171327303)" d="M4.031128874149275,0A4.031128874149275,4.031128874149275,0,1,1,-4.031128874149275,0A4.031128874149275,4.031128874149275,0,1,1,4.031128874149275,0" fill="rgb(72, 26, 108)" stroke="black" stroke-width="1.5" opacity="0.9"/><path aria-label="clade: 20B (B.1.1); subset: USA; total_count: 6129; PC2 (22% variance): −0.706664587158; PC1 (39% variance): 3.41188794281" role="graphics-symbol" aria-roledescription="point" transform="translate(53.11642047853782,11.781097265319273)" d="M4.031128874149275,0A4.031128874149275,4.031128874149275,0,1,1,-4.031128874149275,0A4.031128874149275,4.031128874149275,0,1,1,4.031128874149275,0" fill="rgb(71, 47, 125)" stroke="black" stroke-width="1.5" opacity="0.9"/><path aria-label="clade: 20C (B.1.367); subset: USA; total_count: 8516; PC2 (22% variance): 1.06512457462; PC1 (39% variance): 1.15982753065" role="graphics-symbol" aria-roledescription="point" transform="translate(98.92752012266482,118.13055928677757)" d="M4.031128874149275,0A4.031128874149275,4.031128874149275,0,1,1,-4.031128874149275,0A4.031128874149275,4.031128874149275,0,1,1,4.031128874149275,0" fill="rgb(65, 68, 135)" stroke="black" stroke-width="1.5" opacity="0.9"/><path aria-label="clade: 20E (B.1.177); subset: England; total_count: 6287; PC2 (22% variance): −0.262982844484; PC1 (39% variance): 2.8841954313" role="graphics-symbol" aria-roledescription="point" transform="translate(64.58818526998344,36.7004175505348)" d="M-4.031128874149275,-4.031128874149275h8.06225774829855v8.06225774829855h-8.06225774829855Z" fill="rgb(57, 86, 140)" stroke="black" stroke-width="1.5" opacity="0.9"/><path aria-label="clade: 20G (B.1.2); subset: USA; total_count: 13950; PC2 (22% variance): −0.370990831943; PC1 (39% variance): 2.24772276809" role="graphics-symbol" aria-roledescription="point" transform="translate(61.79554787124247,66.75668289654436)" d="M4.031128874149275,0A4.031128874149275,4.031128874149275,0,1,1,-4.031128874149275,0A4.031128874149275,4.031128874149275,0,1,1,4.031128874149275,0" fill="rgb(49, 104, 142)" stroke="black" stroke-width="1.5" opacity="0.9"/><path aria-label="clade: 20I (Alpha); subset: England; total_count: 19559; PC2 (22% variance): −0.927428918385; PC1 (39% variance): 1.48376882092" role="graphics-symbol" aria-roledescription="point" transform="translate(47.40837293320945,102.83302030381998)" d="M-4.031128874149275,-4.031128874149275h8.06225774829855v8.06225774829855h-8.06225774829855Z" fill="rgb(42, 120, 142)" stroke="black" stroke-width="1.5" opacity="0.9"/><path aria-label="clade: 20I (Alpha); subset: USA; total_count: 21919; PC2 (22% variance): −0.99210104049; PC1 (39% variance): 3.44960452892" role="graphics-symbol" aria-roledescription="point" transform="translate(45.7362207980475,9.999999999999998)" d="M4.031128874149275,0A4.031128874149275,4.031128874149275,0,1,1,-4.031128874149275,0A4.031128874149275,4.031128874149275,0,1,1,4.031128874149275,0" fill="rgb(42, 120, 142)" stroke="black" stroke-width="1.5" opacity="0.9"/><path aria-label="clade: 21C (Epsilon); subset: USA; total_count: 6276; PC2 (22% variance): −0.281424371418; PC1 (39% variance): 1.63715361163" role="graphics-symbol" aria-roledescription="point" transform="translate(64.11136407353607,95.58970219141547)" d="M4.031128874149275,0A4.031128874149275,4.031128874149275,0,1,1,-4.031128874149275,0A4.031128874149275,4.031128874149275,0,1,1,4.031128874149275,0" fill="rgb(35, 136, 142)" stroke="black" stroke-width="1.5" opacity="0.9"/><path aria-label="clade: 21I (Delta); subset: USA; total_count: 17419; PC2 (22% variance): 3.27746880682; PC1 (39% variance): −1.0813428059" role="graphics-symbol" aria-roledescription="point" transform="translate(156.12954181627745,223.9657572694144)" d="M4.031128874149275,0A4.031128874149275,4.031128874149275,0,1,1,-4.031128874149275,0A4.031128874149275,4.031128874149275,0,1,1,4.031128874149275,0" fill="rgb(31, 152, 139)" stroke="black" stroke-width="1.5" opacity="0.9"/><path aria-label="clade: 21J (Delta); subset: England; total_count: 80893; PC2 (22% variance): 3.40996939796; PC1 (39% variance): −0.371966824644" role="graphics-symbol" aria-roledescription="point" transform="translate(159.555456092349,190.46676515977012)" d="M-4.031128874149275,-4.031128874149275h8.06225774829855v8.06225774829855h-8.06225774829855Z" fill="rgb(34, 168, 132)" stroke="black" stroke-width="1.5" opacity="0.9"/><path aria-label="clade: 21J (Delta); subset: USA; total_count: 138653; PC2 (22% variance): 3.3576857061; PC1 (39% variance): −1.82284624349" role="graphics-symbol" aria-roledescription="point" transform="translate(158.20361724535783,258.98191014360725)" d="M4.031128874149275,0A4.031128874149275,4.031128874149275,0,1,1,-4.031128874149275,0A4.031128874149275,4.031128874149275,0,1,1,4.031128874149275,0" fill="rgb(34, 168, 132)" stroke="black" stroke-width="1.5" opacity="0.9"/><path aria-label="clade: 21K (Omicron BA.1); subset: England; total_count: 36511; PC2 (22% variance): −1.69861281867; PC1 (39% variance): −2.33986783404" role="graphics-symbol" aria-roledescription="point" transform="translate(27.468764281055766,283.39731557032894)" d="M-4.031128874149275,-4.031128874149275h8.06225774829855v8.06225774829855h-8.06225774829855Z" fill="rgb(53, 183, 121)" stroke="black" stroke-width="1.5" opacity="0.9"/><path aria-label="clade: 21K (Omicron BA.1); subset: USA; total_count: 51666; PC2 (22% variance): −0.314409093187; PC1 (39% variance): −2.47968654055" role="graphics-symbol" aria-roledescription="point" transform="translate(63.25851633731353,290)" d="M4.031128874149275,0A4.031128874149275,4.031128874149275,0,1,1,-4.031128874149275,0A4.031128874149275,4.031128874149275,0,1,1,4.031128874149275,0" fill="rgb(53, 183, 121)" stroke="black" stroke-width="1.5" opacity="0.9"/><path aria-label="clade: 21L (Omicron BA.2); subset: England; total_count: 27649; PC2 (22% variance): −0.486814013208; PC1 (39% variance): −1.3566614465" role="graphics-symbol" aria-roledescription="point" transform="translate(58.800842060596466,236.96717994600712)" d="M-4.031128874149275,-4.031128874149275h8.06225774829855v8.06225774829855h-8.06225774829855Z" fill="rgb(84, 197, 104)" stroke="black" stroke-width="1.5" opacity="0.9"/><path aria-label="clade: 21L (Omicron BA.2); subset: USA; total_count: 21464; PC2 (22% variance): −0.388590360526; PC1 (39% variance): −1.61666107436" role="graphics-symbol" aria-roledescription="point" transform="translate(61.34049725064702,249.24519007374303)" d="M4.031128874149275,0A4.031128874149275,4.031128874149275,0,1,1,-4.031128874149275,0A4.031128874149275,4.031128874149275,0,1,1,4.031128874149275,0" fill="rgb(84, 197, 104)" stroke="black" stroke-width="1.5" opacity="0.9"/><path aria-label="clade: 22A (Omicron BA.4); subset: USA; total_count: 8521; PC2 (22% variance): −2.37423439212; PC1 (39% variance): −2.09025873689" role="graphics-symbol" aria-roledescription="point" transform="translate(10.000000000000002,271.6099793806714)" d="M4.031128874149275,0A4.031128874149275,4.031128874149275,0,1,1,-4.031128874149275,0A4.031128874149275,4.031128874149275,0,1,1,4.031128874149275,0" fill="rgb(122, 209, 81)" stroke="black" stroke-width="1.5" opacity="0.9"/><path aria-label="clade: 22B (Omicron BA.5); subset: England; total_count: 13152; PC2 (22% variance): −0.742245224764; PC1 (39% variance): −1.80242507361" role="graphics-symbol" aria-roledescription="point" transform="translate(52.196453154025036,258.01755749196315)" d="M-4.031128874149275,-4.031128874149275h8.06225774829855v8.06225774829855h-8.06225774829855Z" fill="rgb(165, 219, 54)" stroke="black" stroke-width="1.5" opacity="0.9"/><path aria-label="clade: 22B (Omicron BA.5); subset: USA; total_count: 44110; PC2 (22% variance): −1.21156996007; PC1 (39% variance): −2.44156552416" role="graphics-symbol" aria-roledescription="point" transform="translate(40.06166721088354,288.1998042492965)" d="M4.031128874149275,0A4.031128874149275,4.031128874149275,0,1,1,-4.031128874149275,0A4.031128874149275,4.031128874149275,0,1,1,4.031128874149275,0" fill="rgb(165, 219, 54)" stroke="black" stroke-width="1.5" opacity="0.9"/><path aria-label="clade: 22C (Omicron BA.2.12.1); subset: USA; total_count: 18167; PC2 (22% variance): −1.02595456407; PC1 (39% variance): −1.70493896446" role="graphics-symbol" aria-roledescription="point" transform="translate(44.86090945994016,253.41395307436173)" d="M4.031128874149275,0A4.031128874149275,4.031128874149275,0,1,1,-4.031128874149275,0A4.031128874149275,4.031128874149275,0,1,1,4.031128874149275,0" fill="rgb(210, 226, 27)" stroke="black" stroke-width="1.5" opacity="0.9"/></g><g class="mark-group role-legend" role="graphics-symbol" aria-roledescription="legend" aria-label="Symbol legend titled 'clade' for fill color with 14 values: 20A (B.1), 20B (B.1.1), 20C (B.1.367), 20E (B.1.177), 20G (B.1.2), ending with 22C (Omicron BA.2.12.1)"><g transform="translate(188,0)"><path class="background" aria-hidden="true" d="M0,0h129v237h-129Z" pointer-events="none"/><g><g class="mark-group role-legend-entry"><g transform="translate(0,16)"><path class="background" aria-hidden="true" d="M0,0h0v0h0Z" pointer-events="none"/><g><g class="mark-group role-scope clade_legend_entries" role="graphics-object" aria-roledescription="group mark container"><g transform="translate(0,0)"><path class="background" aria-hidden="true" d="M0,0h128.265625v12.5h-128.265625Z" opacity="1"/><g><g class="mark-symbol role-legend-symbol clade_legend_symbols"><path transform="translate(6,6)" d="M5,0A5,5,0,1,1,-5,0A5,5,0,1,1,5,0" fill="rgb(72, 26, 108)" stroke="black" stroke-width="1.5" opacity="0.9"/></g><g class="mark-text role-legend-label clade_legend_labels"><text text-anchor="start" transform="translate(16,9)" font-family="sans-serif" font-size="10px" fill="#000" opacity="1">20A (B.1)</text></g></g><path class="foreground" aria-hidden="true" d="" display="none"/></g><g transform="translate(0,16)"><path class="background" aria-hidden="true" d="M0,0h128.265625v12.5h-128.265625Z" opacity="1"/><g><g class="mark-symbol role-legend-symbol clade_legend_symbols"><path transform="translate(6,6)" d="M5,0A5,5,0,1,1,-5,0A5,5,0,1,1,5,0" fill="rgb(71, 47, 125)" stroke="black" stroke-width="1.5" opacity="0.9"/></g><g class="mark-text role-legend-label clade_legend_labels"><text text-anchor="start" transform="translate(16,9)" font-family="sans-serif" font-size="10px" fill="#000" opacity="1">20B (B.1.1)</text></g></g><path class="foreground" aria-hidden="true" d="" display="none"/></g><g transform="translate(0,32)"><path class="background" aria-hidden="true" d="M0,0h128.265625v12.5h-128.265625Z" opacity="1"/><g><g class="mark-symbol role-legend-symbol clade_legend_symbols"><path transform="translate(6,6)" d="M5,0A5,5,0,1,1,-5,0A5,5,0,1,1,5,0" fill="rgb(65, 68, 135)" stroke="black" stroke-width="1.5" opacity="0.9"/></g><g class="mark-text role-legend-label clade_legend_labels"><text text-anchor="start" transform="translate(16,9)" font-family="sans-serif" font-size="10px" fill="#000" opacity="1">20C (B.1.367)</text></g></g><path class="foreground" aria-hidden="true" d="" display="none"/></g><g transform="translate(0,48)"><path class="background" aria-hidden="true" d="M0,0h128.265625v12.5h-128.265625Z" opacity="1"/><g><g class="mark-symbol role-legend-symbol clade_legend_symbols"><path transform="translate(6,6)" d="M5,0A5,5,0,1,1,-5,0A5,5,0,1,1,5,0" fill="rgb(57, 86, 140)" stroke="black" stroke-width="1.5" opacity="0.9"/></g><g class="mark-text role-legend-label clade_legend_labels"><text text-anchor="start" transform="translate(16,9)" font-family="sans-serif" font-size="10px" fill="#000" opacity="1">20E (B.1.177)</text></g></g><path class="foreground" aria-hidden="true" d="" display="none"/></g><g transform="translate(0,64)"><path class="background" aria-hidden="true" d="M0,0h128.265625v12.5h-128.265625Z" opacity="1"/><g><g class="mark-symbol role-legend-symbol clade_legend_symbols"><path transform="translate(6,6)" d="M5,0A5,5,0,1,1,-5,0A5,5,0,1,1,5,0" fill="rgb(49, 104, 142)" stroke="black" stroke-width="1.5" opacity="0.9"/></g><g class="mark-text role-legend-label clade_legend_labels"><text text-anchor="start" transform="translate(16,9)" font-family="sans-serif" font-size="10px" fill="#000" opacity="1">20G (B.1.2)</text></g></g><path class="foreground" aria-hidden="true" d="" display="none"/></g><g transform="translate(0,80)"><path class="background" aria-hidden="true" d="M0,0h128.265625v12.5h-128.265625Z" opacity="1"/><g><g class="mark-symbol role-legend-symbol clade_legend_symbols"><path transform="translate(6,6)" d="M5,0A5,5,0,1,1,-5,0A5,5,0,1,1,5,0" fill="rgb(42, 120, 142)" stroke="black" stroke-width="1.5" opacity="0.9"/></g><g class="mark-text role-legend-label clade_legend_labels"><text text-anchor="start" transform="translate(16,9)" font-family="sans-serif" font-size="10px" fill="#000" opacity="1">20I (Alpha)</text></g></g><path class="foreground" aria-hidden="true" d="" display="none"/></g><g transform="translate(0,96)"><path class="background" aria-hidden="true" d="M0,0h128.265625v12.5h-128.265625Z" opacity="1"/><g><g class="mark-symbol role-legend-symbol clade_legend_symbols"><path transform="translate(6,6)" d="M5,0A5,5,0,1,1,-5,0A5,5,0,1,1,5,0" fill="rgb(35, 136, 142)" stroke="black" stroke-width="1.5" opacity="0.9"/></g><g class="mark-text role-legend-label clade_legend_labels"><text text-anchor="start" transform="translate(16,9)" font-family="sans-serif" font-size="10px" fill="#000" opacity="1">21C (Epsilon)</text></g></g><path class="foreground" aria-hidden="true" d="" display="none"/></g><g transform="translate(0,112)"><path class="background" aria-hidden="true" d="M0,0h128.265625v12.5h-128.265625Z" opacity="1"/><g><g class="mark-symbol role-legend-symbol clade_legend_symbols"><path transform="translate(6,6)" d="M5,0A5,5,0,1,1,-5,0A5,5,0,1,1,5,0" fill="rgb(31, 152, 139)" stroke="black" stroke-width="1.5" opacity="0.9"/></g><g class="mark-text role-legend-label clade_legend_labels"><text text-anchor="start" transform="translate(16,9)" font-family="sans-serif" font-size="10px" fill="#000" opacity="1">21I (Delta)</text></g></g><path class="foreground" aria-hidden="true" d="" display="none"/></g><g transform="translate(0,128)"><path class="background" aria-hidden="true" d="M0,0h128.265625v12.5h-128.265625Z" opacity="1"/><g><g class="mark-symbol role-legend-symbol clade_legend_symbols"><path transform="translate(6,6)" d="M5,0A5,5,0,1,1,-5,0A5,5,0,1,1,5,0" fill="rgb(34, 168, 132)" stroke="black" stroke-width="1.5" opacity="0.9"/></g><g class="mark-text role-legend-label clade_legend_labels"><text text-anchor="start" transform="translate(16,9)" font-family="sans-serif" font-size="10px" fill="#000" opacity="1">21J (Delta)</text></g></g><path class="foreground" aria-hidden="true" d="" display="none"/></g><g transform="translate(0,144)"><path class="background" aria-hidden="true" d="M0,0h128.265625v12.5h-128.265625Z" opacity="1"/><g><g class="mark-symbol role-legend-symbol clade_legend_symbols"><path transform="translate(6,6)" d="M5,0A5,5,0,1,1,-5,0A5,5,0,1,1,5,0" fill="rgb(53, 183, 121)" stroke="black" stroke-width="1.5" opacity="0.9"/></g><g class="mark-text role-legend-label clade_legend_labels"><text text-anchor="start" transform="translate(16,9)" font-family="sans-serif" font-size="10px" fill="#000" opacity="1">21K (Omicron BA.1)</text></g></g><path class="foreground" aria-hidden="true" d="" display="none"/></g><g transform="translate(0,160)"><path class="background" aria-hidden="true" d="M0,0h128.265625v12.5h-128.265625Z" opacity="1"/><g><g class="mark-symbol role-legend-symbol clade_legend_symbols"><path transform="translate(6,6)" d="M5,0A5,5,0,1,1,-5,0A5,5,0,1,1,5,0" fill="rgb(84, 197, 104)" stroke="black" stroke-width="1.5" opacity="0.9"/></g><g class="mark-text role-legend-label clade_legend_labels"><text text-anchor="start" transform="translate(16,9)" font-family="sans-serif" font-size="10px" fill="#000" opacity="1">21L (Omicron BA.2)</text></g></g><path class="foreground" aria-hidden="true" d="" display="none"/></g><g transform="translate(0,176)"><path class="background" aria-hidden="true" d="M0,0h128.265625v12.5h-128.265625Z" opacity="1"/><g><g class="mark-symbol role-legend-symbol clade_legend_symbols"><path transform="translate(6,6)" d="M5,0A5,5,0,1,1,-5,0A5,5,0,1,1,5,0" fill="rgb(122, 209, 81)" stroke="black" stroke-width="1.5" opacity="0.9"/></g><g class="mark-text role-legend-label clade_legend_labels"><text text-anchor="start" transform="translate(16,9)" font-family="sans-serif" font-size="10px" fill="#000" opacity="1">22A (Omicron BA.4)</text></g></g><path class="foreground" aria-hidden="true" d="" display="none"/></g><g transform="translate(0,192)"><path class="background" aria-hidden="true" d="M0,0h128.265625v12.5h-128.265625Z" opacity="1"/><g><g class="mark-symbol role-legend-symbol clade_legend_symbols"><path transform="translate(6,6)" d="M5,0A5,5,0,1,1,-5,0A5,5,0,1,1,5,0" fill="rgb(165, 219, 54)" stroke="black" stroke-width="1.5" opacity="0.9"/></g><g class="mark-text role-legend-label clade_legend_labels"><text text-anchor="start" transform="translate(16,9)" font-family="sans-serif" font-size="10px" fill="#000" opacity="1">22B (Omicron BA.5)</text></g></g><path class="foreground" aria-hidden="true" d="" display="none"/></g><g transform="translate(0,208)"><path class="background" aria-hidden="true" d="M0,0h128.265625v12.5h-128.265625Z" opacity="1"/><g><g class="mark-symbol role-legend-symbol clade_legend_symbols"><path transform="translate(6,6)" d="M5,0A5,5,0,1,1,-5,0A5,5,0,1,1,5,0" fill="rgb(210, 226, 27)" stroke="black" stroke-width="1.5" opacity="0.9"/></g><g class="mark-text role-legend-label clade_legend_labels"><text text-anchor="start" transform="translate(16,9)" font-family="sans-serif" font-size="10px" fill="#000" opacity="1">22C (Omicron BA.2.12.1)</text></g></g><path class="foreground" aria-hidden="true" d="" display="none"/></g></g></g><path class="foreground" aria-hidden="true" d="" pointer-events="none" display="none"/></g></g><g class="mark-text role-legend-title" pointer-events="none"><text text-anchor="start" transform="translate(0,9)" font-family="sans-serif" font-size="11px" font-weight="bold" fill="#000" opacity="1">clade</text></g></g><path class="foreground" aria-hidden="true" d="" pointer-events="none" display="none"/></g></g><g class="mark-group role-legend" role="graphics-symbol" aria-roledescription="legend" aria-label="Symbol legend titled 'subset' for shape with 2 values: USA, England"><g transform="translate(188,245)"><path class="background" aria-hidden="true" d="M0,0h53v45h-53Z" pointer-events="none"/><g><g class="mark-group role-legend-entry"><g transform="translate(0,16)"><path class="background" aria-hidden="true" d="M0,0h0v0h0Z" pointer-events="none"/><g><g class="mark-group role-scope subset_legend_entries" role="graphics-object" aria-roledescription="group mark container"><g transform="translate(0,0)"><path class="background" aria-hidden="true" d="M0,0h52.69921875v12.5h-52.69921875Z" opacity="1"/><g><g class="mark-symbol role-legend-symbol subset_legend_symbols"><path transform="translate(6,6)" d="M5,0A5,5,0,1,1,-5,0A5,5,0,1,1,5,0" fill="black" fill-opacity="0.9" stroke="black" stroke-width="1.5" opacity="0.9"/></g><g class="mark-text role-legend-label subset_legend_labels"><text text-anchor="start" transform="translate(16,9)" font-family="sans-serif" font-size="10px" fill="#000" opacity="1">USA</text></g></g><path class="foreground" aria-hidden="true" d="" display="none"/></g><g transform="translate(0,16)"><path class="background" aria-hidden="true" d="M0,0h52.69921875v12.5h-52.69921875Z" opacity="1"/><g><g class="mark-symbol role-legend-symbol subset_legend_symbols"><path transform="translate(6,6)" d="M-5,-5h10v10h-10Z" fill="black" fill-opacity="0.9" stroke="black" stroke-width="1.5" opacity="0.9"/></g><g class="mark-text role-legend-label subset_legend_labels"><text text-anchor="start" transform="translate(16,9)" font-family="sans-serif" font-size="10px" fill="#000" opacity="1">England</text></g></g><path class="foreground" aria-hidden="true" d="" display="none"/></g></g></g><path class="foreground" aria-hidden="true" d="" pointer-events="none" display="none"/></g></g><g class="mark-text role-legend-title" pointer-events="none"><text text-anchor="start" transform="translate(0,9)" font-family="sans-serif" font-size="11px" font-weight="bold" fill="#000" opacity="1">subset</text></g></g><path class="foreground" aria-hidden="true" d="" pointer-events="none" display="none"/></g></g><g class="mark-group role-title"><g transform="translate(84.7777280461745,-17)"><path class="background" aria-hidden="true" d="M0,0h0v0h0Z" pointer-events="none"/><g><g class="mark-text role-title-text" role="graphics-symbol" aria-roledescription="title" aria-label="Title text 'by region, whole genome'" pointer-events="none"><text text-anchor="middle" transform="translate(0,10)" font-family="sans-serif" font-size="13px" font-weight="bold" fill="#000" opacity="1">by region, whole genome</text></g></g><path class="foreground" aria-hidden="true" d="" pointer-events="none" display="none"/></g></g></g><path class="foreground" aria-hidden="true" d="" display="none"/></g></g></g></svg>